<svg width="580" height="580" viewBox="0 0 580 580" fill="none" xmlns="http://www.w3.org/2000/svg">
<g clip-path="url(#clip0_1429_4730)">
<path d="M269.309 137.566C269.309 137.566 203.808 140.45 169.109 208.939C134.41 277.427 98.5837 256.05 77.4253 317.831C56.2669 379.612 98.9328 449.867 127.533 457.479C156.132 465.091 482.809 457.479 482.809 457.479C482.809 457.479 525.972 427.969 529.357 351.319C532.742 274.67 468.422 249.07 441.763 238.173C415.105 227.275 374.022 135.874 269.309 137.566Z" fill="#F3F5F4"/>
<path d="M363.162 324.875C438.616 274.107 453.247 248.04 490.489 243.192C581.198 231.387 514.736 465.864 307.017 515.969C208.326 539.774 86.0756 474.844 68.592 424.397C51.6897 375.624 97.1965 357.328 164.392 383.487C231.589 409.646 324.719 350.742 363.162 324.875Z" stroke="#BBBFBD" stroke-miterlimit="10"/>
<path d="M451.712 274.725C455.995 270.043 455.672 262.776 450.991 258.494C446.31 254.211 439.043 254.534 434.76 259.215C430.477 263.896 430.8 271.163 435.481 275.446C440.163 279.729 447.429 279.406 451.712 274.725Z" fill="#D9D9D9"/>
<path d="M446.733 500.842C451.22 496.356 451.22 489.082 446.733 484.595C442.247 480.109 434.972 480.109 430.486 484.595C425.999 489.082 425.999 496.356 430.486 500.842C434.972 505.329 442.247 505.329 446.733 500.842Z" stroke="#BBBFBD" stroke-miterlimit="10"/>
<path d="M288.982 242.876C295.327 242.876 300.47 237.732 300.47 231.387C300.47 225.042 295.327 219.898 288.982 219.898C282.637 219.898 277.493 225.042 277.493 231.387C277.493 237.732 282.637 242.876 288.982 242.876Z" stroke="#BBBFBD" stroke-miterlimit="10"/>
<path d="M256.471 277.281L244.818 293.503H266.965L256.471 277.281Z" stroke="#BBBFBD" stroke-miterlimit="10" stroke-linecap="round" stroke-linejoin="round"/>
<path d="M201.708 483.348L194.382 497.452H216.528L201.708 483.348Z" fill="#D9D9D9"/>
<path d="M93.0909 309.923C95.8725 298.143 88.5778 286.339 76.7978 283.557C65.0177 280.775 53.2132 288.07 50.4316 299.85C47.65 311.63 54.9446 323.435 66.7247 326.216C78.5047 328.998 90.3093 321.703 93.0909 309.923Z" stroke="#BBBFBD" stroke-miterlimit="10" stroke-linecap="round" stroke-linejoin="round"/>
<path d="M67.6704 306.886C67.5042 306.019 67.4211 305.248 67.4211 304.571C67.4211 303.467 67.5754 302.57 67.8841 301.882C68.1928 301.181 68.5847 300.611 69.0596 300.172C69.5345 299.721 70.0214 299.311 70.52 298.943C71.185 298.456 71.7727 297.94 72.2833 297.393C72.7938 296.835 73.0491 296.034 73.0491 294.989C73.0491 293.968 72.7463 293.196 72.1408 292.674C71.5352 292.151 70.7575 291.89 69.8076 291.89C68.6915 291.89 67.7654 292.187 67.0292 292.78C66.2931 293.374 65.7706 293.968 65.4619 294.562L62.9329 291.106C63.5384 290.358 64.4408 289.646 65.64 288.969C66.8511 288.28 68.2759 287.936 69.9145 287.936C72.5504 287.936 74.5036 288.512 75.7741 289.664C77.0446 290.815 77.6798 292.436 77.6798 294.526C77.6798 295.44 77.5373 296.206 77.2523 296.823C76.9792 297.429 76.6171 297.957 76.1659 298.409C75.7147 298.848 75.2338 299.275 74.7233 299.691C74.1771 300.13 73.6487 300.605 73.1382 301.116C72.6276 301.626 72.2061 302.256 71.8736 303.004C71.5412 303.74 71.3749 304.678 71.3749 305.818V306.886H67.6704ZM67.6348 315.613V310.306H71.6599V315.613H67.6348Z" fill="#B19E7F"/>
<path d="M312.96 160.144C321.519 151.585 321.519 137.708 312.96 129.149C304.401 120.59 290.524 120.59 281.965 129.149C273.406 137.708 273.406 151.585 281.965 160.144C290.524 168.703 304.401 168.703 312.96 160.144Z" fill="#B19E7F"/>
<path d="M293.364 146.662C293.198 145.795 293.114 145.023 293.114 144.346C293.114 143.242 293.269 142.346 293.577 141.657C293.886 140.956 294.278 140.386 294.753 139.947C295.228 139.496 295.715 139.086 296.213 138.718C296.878 138.231 297.466 137.715 297.977 137.169C298.487 136.611 298.742 135.809 298.742 134.764C298.742 133.743 298.44 132.971 297.834 132.449C297.229 131.927 296.451 131.665 295.501 131.665C294.385 131.665 293.459 131.962 292.723 132.556C291.986 133.15 291.464 133.743 291.155 134.337L288.626 130.882C289.232 130.134 290.134 129.421 291.333 128.744C292.544 128.056 293.969 127.711 295.608 127.711C298.244 127.711 300.197 128.287 301.467 129.439C302.738 130.591 303.373 132.212 303.373 134.301C303.373 135.216 303.231 135.981 302.946 136.599C302.673 137.204 302.31 137.733 301.859 138.184C301.408 138.623 300.927 139.051 300.417 139.466C299.87 139.906 299.342 140.381 298.832 140.891C298.321 141.402 297.899 142.031 297.567 142.779C297.235 143.515 297.068 144.453 297.068 145.593V146.662H293.364ZM293.328 155.389V150.081H297.353V155.389H293.328Z" fill="white"/>
<path d="M139.511 316.551C140.906 310.616 137.225 304.675 131.29 303.28C125.356 301.885 119.414 305.565 118.019 311.5C116.624 317.435 120.304 323.377 126.239 324.772C132.174 326.167 138.116 322.486 139.511 316.551Z" fill="#D9D9D9"/>
<path d="M519.794 116.754H421.014C415.375 116.754 410.805 121.324 410.805 126.963V186.414C410.805 192.053 415.375 196.623 421.014 196.623H441.12L437.133 206.925C435.979 209.909 439.433 212.551 442.011 210.657L461.105 196.622H519.795C525.434 196.622 530.004 192.052 530.004 186.413V126.962C530.003 121.324 525.431 116.754 519.794 116.754Z" fill="#D5A618"/>
<path d="M422.457 133.418H516.946" stroke="white" stroke-miterlimit="10" stroke-linecap="round" stroke-linejoin="round"/>
<path d="M422.457 142H516.946" stroke="white" stroke-miterlimit="10" stroke-linecap="round" stroke-linejoin="round"/>
<path d="M422.457 150.586H516.946" stroke="white" stroke-miterlimit="10" stroke-linecap="round" stroke-linejoin="round"/>
<path d="M422.457 159.168H516.946" stroke="white" stroke-miterlimit="10" stroke-linecap="round" stroke-linejoin="round"/>
<path d="M422.457 167.75H516.946" stroke="white" stroke-miterlimit="10" stroke-linecap="round" stroke-linejoin="round"/>
<path d="M422.457 176.332H516.946" stroke="white" stroke-miterlimit="10" stroke-linecap="round" stroke-linejoin="round"/>
<path d="M210.935 305.744C210.935 305.744 209.93 297.3 208.624 293.278C207.316 289.258 201.788 281.618 201.788 281.618C201.788 281.618 199.577 286.343 202.793 290.262C202.793 290.262 202.593 296.495 202.894 298.706C202.894 298.706 192.444 289.78 190.434 288.875C189.159 287.858 187.603 286.618 185.704 285.104C178.769 279.575 174.145 281.284 174.747 281.687C175.162 281.963 183.094 288.377 188.005 292.354L187.362 293.274C185.87 292.084 183.494 290.187 179.974 287.381C173.038 281.852 168.413 283.561 169.017 283.964C169.521 284.3 181.132 293.704 184.918 296.772L183.801 298.373C182.332 297.202 179.889 295.252 176.153 292.274C169.217 286.745 164.593 288.454 165.195 288.857C165.712 289.201 177.877 299.056 181.355 301.875L180.171 303.572C178.88 302.399 175.293 299.214 171.831 296.798C167.509 293.782 164.392 295.189 164.392 295.189C164.392 295.189 164.392 295.189 166.301 296.898C168.21 298.606 178.162 306.448 178.162 306.448C178.162 306.448 193.356 320.019 197.169 321.325L200.886 324.872L214.566 310.065L210.935 305.744Z" fill="#FF996A"/>
<path d="M320.312 399.477C312.155 411.239 300.745 418.504 285.576 415.417C244.954 407.161 196.989 328.308 196.989 328.308L199.403 325.696L217.305 306.328L279.611 362.946L299.068 334.78L318.073 307.275L327.466 293.684C327.466 293.684 332.966 302.381 336.428 330.029C338.589 347.356 334.025 379.744 320.312 399.477Z" fill="#D3AA7D"/>
<path d="M320.312 399.476C312.155 411.238 300.745 418.504 285.576 415.417C244.954 407.16 196.989 328.308 196.989 328.308L199.403 325.695L200.891 324.868C200.891 324.868 258.049 403.5 282.136 391.804C297.029 384.572 299.421 355.745 299.069 334.778L318.074 307.273L320.312 399.476Z" fill="#C1966B"/>
<path d="M472.891 391.805L469.19 456.982H454.836L460.478 391.805H472.891Z" fill="#8E7E66"/>
<path d="M385.038 391.805L381.336 456.982H366.983L372.626 391.805H385.038Z" fill="#8E7E66"/>
<path d="M474.36 403.088H360.644C349.341 403.088 340.178 393.926 340.178 382.622V319.013C340.178 307.71 349.341 298.547 360.644 298.547H474.36C485.663 298.547 494.826 307.71 494.826 319.013V382.622C494.826 393.926 485.663 403.088 474.36 403.088Z" fill="#8E7E66"/>
<path d="M464.769 403.088H351.053C339.75 403.088 330.587 393.926 330.587 382.622V319.013C330.587 307.71 339.75 298.547 351.053 298.547H464.769C476.072 298.547 485.235 307.71 485.235 319.013V382.622C485.234 393.926 476.071 403.088 464.769 403.088Z" fill="#9F8E72"/>
<path d="M379.056 269.2C379.056 269.2 401.483 265.598 431.656 296.812L438.616 456.982H312.515C312.515 456.982 298.745 348.925 314.795 310.498C330.846 272.07 359.673 267.482 379.056 269.2Z" fill="#FFD294"/>
<path d="M335.061 182.335L340.598 174.754L387.8 190.558L387.39 208.287H390.507C396.837 208.287 401.97 213.419 401.97 219.75C401.97 226.082 396.838 231.213 390.507 231.213H386.86L386.304 255.278V276.424L352.131 281.124L351.293 266.98L350.85 259.549L345.891 257.181C331.697 250.408 322.656 236.08 322.656 220.351C322.656 206.679 327.003 193.368 335.061 182.335Z" fill="#FF996A"/>
<path d="M350.85 259.544L351.293 266.975C352.549 266.826 353.865 266.631 355.23 266.383C376.336 262.535 384.599 243.458 383.742 233.629C383.742 233.629 376.626 257.267 350.85 259.544Z" fill="#D37A57"/>
<path d="M390.86 216.463C389.976 217.132 389.161 218.018 388.87 219.124C388.87 219.124 390.632 219.711 390.792 221.688C390.952 223.663 388.87 224.518 388.87 224.518C388.87 224.518 390.472 227.188 393.142 225.747C395.813 224.305 395.37 219.271 392.716 218.217C392.716 218.217 396.934 217.737 398.482 219.285C398.482 219.285 398.836 217.732 397.072 216.359C395.255 214.94 392.696 215.072 390.86 216.463Z" fill="#D37A57"/>
<path d="M335.061 182.333C335.061 182.333 341.453 193.334 349.712 196.894C357.971 200.455 366.799 195.273 375.058 200C383.317 204.727 378.049 213.586 379.9 217.843C381.751 222.099 383.805 222.669 383.805 222.669C383.805 222.669 384.915 210.565 387.391 208.287C387.391 208.287 394.807 208.224 397.116 210.385C397.116 210.385 401.259 202.022 401.971 195.471C402.684 188.921 395.421 186.785 395.421 186.785C395.421 186.785 393.712 171.122 374.489 165.283C355.265 159.445 340.599 168.701 332.91 165.283C325.22 161.866 318.243 166.993 317.816 174.754C317.389 182.513 322.657 185.362 322.657 185.362C322.657 185.362 319.097 188.363 320.522 192.985C321.946 197.608 326.415 198.675 326.415 198.675C326.415 198.675 331.674 186.953 335.061 182.333Z" fill="#3F2D1F"/>
<path d="M338.889 238.63L358.462 237.668C358.462 237.668 353.931 244.717 347.481 244.65C341.542 244.587 338.889 238.63 338.889 238.63Z" fill="white"/>
<path d="M361.386 206.755C361.141 206.755 360.892 206.672 360.687 206.503C356.556 203.099 352.494 205.99 352.452 206.022C351.96 206.382 351.27 206.273 350.912 205.781C350.553 205.29 350.66 204.601 351.152 204.241C353.031 202.869 357.737 201.217 362.088 204.801C362.558 205.189 362.625 205.883 362.238 206.353C362.021 206.618 361.705 206.755 361.386 206.755Z" fill="#3F2D1F"/>
<path d="M337.046 206.755C336.799 206.755 336.552 206.672 336.347 206.503C332.216 203.099 328.152 205.99 328.112 206.022C327.62 206.382 326.93 206.273 326.571 205.781C326.213 205.29 326.32 204.601 326.811 204.241C328.692 202.869 333.397 201.217 337.748 204.801C338.219 205.189 338.285 205.883 337.898 206.353C337.681 206.618 337.365 206.755 337.046 206.755Z" fill="#3F2D1F"/>
<path d="M392.572 270.87L386.377 262.812L361.775 271.482L357.791 278.395L355.097 272.185L351.36 268.106L347.482 275.583C347.482 275.583 347.6 283.081 357.09 285.073C366.578 287.065 387.315 279.332 392.572 270.87Z" fill="#9C897A"/>
<path d="M397.114 210.385C397.114 210.385 393.29 208.925 389.659 212.263C386.028 215.602 387.258 218.882 387.258 218.882C387.258 218.882 388.935 214.927 392.53 215.358C396.125 215.79 398.74 225.501 393.936 227.318C389.132 229.133 383.002 226.367 383.216 218.882C383.431 211.399 386.176 207.166 390.7 206.523C395.224 205.878 397.013 209.679 397.114 210.385Z" fill="#D5A618"/>
<path d="M363.149 247.999C362.685 247.999 362.272 247.671 362.181 247.199C362.079 246.663 362.429 246.145 362.965 246.042C381.572 242.463 387.876 224.941 387.937 224.764C388.116 224.25 388.676 223.978 389.194 224.156C389.709 224.335 389.981 224.896 389.803 225.411C389.737 225.599 383.087 244.183 363.336 247.98C363.275 247.993 363.212 247.999 363.149 247.999Z" fill="#D5A618"/>
<path d="M358.999 247.352C358.999 249.651 360.863 251.515 363.163 251.515C365.464 251.515 367.327 249.651 367.327 247.352C367.327 245.053 365.463 243.188 363.163 243.188C360.864 243.188 358.999 245.052 358.999 247.352Z" fill="#8E7E66"/>
<path d="M392.06 217.15C392.06 217.15 391.533 221.749 392.544 224.211C393.554 226.671 395.136 225.397 395.444 222.409C395.75 219.421 392.763 215.23 392.06 217.15Z" fill="#8E7E66"/>
<path d="M352.468 215.609C352.468 215.609 352.476 219.902 358.095 220.614C363.716 221.327 364.739 215.609 364.739 215.609C364.739 215.609 361.548 212.617 357.421 212.529C353.297 212.44 352.468 215.609 352.468 215.609Z" fill="white"/>
<path d="M326.794 215.609C326.794 215.609 326.801 219.902 332.3 220.614C337.799 221.327 338.535 215.614 338.535 215.614C338.535 215.614 335.677 212.617 331.64 212.529C327.604 212.44 326.794 215.609 326.794 215.609Z" fill="white"/>
<path d="M338.534 215.614C338.534 215.614 335.589 212.379 332.437 211.798C329.286 211.216 327.122 212.751 326.794 215.614C326.794 215.614 327.419 213.25 330.571 212.96C333.724 212.669 338.534 215.614 338.534 215.614Z" fill="#3F2D1F"/>
<path d="M364.74 215.607C364.74 215.607 361.662 212.226 358.368 211.619C355.073 211.013 352.813 212.616 352.469 215.607C352.469 215.607 353.122 213.137 356.417 212.833C359.711 212.53 364.74 215.607 364.74 215.607Z" fill="#3F2D1F"/>
<path d="M343.934 215.73L341.343 231.375C341.343 231.375 339.28 231.534 336.423 230.371C336.423 230.371 343.194 217.488 343.934 215.73Z" fill="#D37A57"/>
<path d="M266.814 456.983C266.814 456.983 266.393 444.489 280.461 440.576C294.531 436.661 311.669 448.106 314.419 456.983H266.814Z" fill="#8E7E66"/>
<path d="M357.864 221.166C359.811 221.166 361.389 219.17 361.389 216.706C361.389 214.243 359.811 212.246 357.864 212.246C355.917 212.246 354.338 214.243 354.338 216.706C354.338 219.17 355.917 221.166 357.864 221.166Z" fill="#3F2D1F"/>
<path d="M336.67 216.848C336.67 219.234 335.131 221.169 333.232 221.169C331.333 221.169 329.794 219.234 329.794 216.848C329.794 214.462 331.333 212.527 333.232 212.527C335.131 212.527 336.67 214.461 336.67 216.848Z" fill="#3F2D1F"/>
<path d="M373.449 227.86C373.449 229.806 371.146 231.382 368.306 231.382C365.465 231.382 363.162 229.806 363.162 227.86C363.162 225.916 365.465 224.34 368.306 224.34C371.146 224.339 373.449 225.915 373.449 227.86Z" fill="#D37A57"/>
<path d="M331.45 226.174C331.45 228.118 329.148 229.695 326.307 229.695C323.466 229.695 321.164 228.118 321.164 226.174C321.164 224.229 323.466 222.652 326.307 222.652C329.148 222.652 331.45 224.229 331.45 226.174Z" fill="#D37A57"/>
<path d="M466.31 417.213C462.748 427.928 456.234 436.031 448.517 441.764C443.259 445.655 437.45 448.444 431.651 450.197C407.443 457.538 317.787 456.976 317.787 456.976L321.16 429.891L421.553 407.326C421.553 407.326 408.567 366.13 409.14 332.849C409.659 301.872 418.896 289.106 429.302 295.137C430.085 295.6 430.867 296.151 431.65 296.812C431.65 296.812 447.502 320.436 463.861 368.952C470.554 388.794 470.432 404.757 466.31 417.213Z" fill="#E5BC89"/>
<path d="M310.963 433.489L289.665 429.607C289.665 429.607 285.751 428.937 281.836 430.631C277.922 432.323 273.478 440.575 273.478 440.575C273.478 440.575 277.075 440.629 279.508 438.434C281.941 436.238 282.258 434.334 282.258 434.334L290.074 434.943L290.213 436.757C287.603 437.327 280.172 439.022 276.546 440.576C272.103 442.481 269.775 448.299 269.775 448.299C269.775 448.299 275.594 447.453 278.555 443.856L290.654 442.483L290.741 443.613C288.247 443.783 283.794 444.342 279.615 446.184C273.373 448.934 271.469 452.637 271.469 452.637C271.469 452.637 277.711 452.637 282.1 449.252L285.056 449.007C282.135 450.88 279.615 455.388 279.615 455.388C279.615 455.388 280.884 455.706 283.741 454.436C286.597 453.167 287.338 451.719 287.338 451.719L295.662 452.342C299.984 452.959 306.523 453.566 310.259 452.32L318.219 453.545L320.718 433.493H310.963V433.489Z" fill="#FF996A"/>
<path d="M488.272 470.088H87.7771C84.1579 470.088 81.2231 467.154 81.2231 463.534C81.2231 459.915 84.1579 456.98 87.7771 456.98H488.273C491.892 456.98 494.827 459.915 494.827 463.534C494.826 467.155 491.892 470.088 488.272 470.088Z" fill="#8E7E66"/>
<path d="M334.748 470.088H85.1556C82.984 470.088 81.2231 467.154 81.2231 463.534C81.2231 459.915 82.984 456.98 85.1556 456.98H209.952H334.748C336.92 456.98 338.681 459.915 338.681 463.534C338.681 467.155 336.92 470.088 334.748 470.088Z" fill="#9F8E72"/>
<path d="M259.272 431.722H121.348C116.697 431.722 112.671 428.485 111.669 423.943L93.8414 342.975C92.9668 339.004 95.9909 335.242 100.057 335.242H239.536C243.659 335.242 247.227 338.11 248.113 342.136L265.997 423.356C266.942 427.652 263.671 431.722 259.272 431.722Z" fill="#9F8E72"/>
<path d="M143.965 418.008C142.813 423.811 136.042 427.356 128.841 425.925C121.64 424.496 116.737 418.634 117.888 412.831C119.04 407.029 125.811 403.485 133.013 404.914C140.214 406.345 145.117 412.206 143.965 418.008Z" fill="#B19E7F"/>
<path d="M265.996 423.357L248.112 342.136C247.226 338.11 243.658 335.242 239.535 335.242H231.495C235.618 335.242 239.186 338.11 240.072 342.136L257.956 423.357C258.902 427.654 255.631 431.723 251.231 431.723H259.271C263.671 431.723 266.942 427.654 265.996 423.357Z" fill="#8E7E66"/>
<path d="M242.128 453.727C242.128 455.524 240.677 456.975 238.88 456.975H124.384C122.548 456.975 120.879 456.224 119.675 455.02C118.46 453.816 117.72 452.157 117.72 450.311C117.72 448.998 118.115 447.713 118.845 446.618L147.183 404.161C147.993 402.966 149.336 402.246 150.777 402.246H200.323C202.1 402.246 203.216 404.172 202.317 405.712L178.393 447.043C177.504 448.573 178.61 450.479 180.367 450.479H238.879C239.778 450.479 240.587 450.844 241.179 451.437C241.762 452.019 242.128 452.829 242.128 453.727Z" fill="#8E7E66"/>
<path d="M208.135 382.92H137.891C137.074 382.92 136.41 382.256 136.41 381.438C136.41 380.621 137.074 379.957 137.891 379.957H208.135C208.953 379.957 209.617 380.621 209.617 381.438C209.617 382.257 208.953 382.92 208.135 382.92Z" fill="#8E7E66"/>
<path d="M211.521 391.806H141.276C140.458 391.806 139.795 391.143 139.795 390.325C139.795 389.507 140.458 388.844 141.276 388.844H211.52C212.338 388.844 213.001 389.507 213.001 390.325C213.001 391.144 212.339 391.806 211.521 391.806Z" fill="#8E7E66"/>
<path d="M95.2964 340.038H244.045C245.255 340.038 246.418 340.261 247.491 340.661C246.152 337.428 242.977 335.242 239.379 335.242H99.8992C96.8032 335.242 94.3173 337.424 93.6909 340.217C94.2036 340.101 94.7407 340.038 95.2964 340.038Z" fill="#B19E7F"/>
<path d="M248.11 418.008C246.958 423.811 240.187 427.356 232.986 425.925C225.785 424.496 220.882 418.634 222.033 412.831C223.185 407.029 229.956 403.485 237.158 404.914C244.358 406.345 249.261 412.206 248.11 418.008Z" fill="#B19E7F"/>
<path d="M242.12 453.966C241.997 455.696 240.44 456.979 238.706 456.979H173.546C170.915 456.979 168.782 454.846 168.782 452.216C168.782 451.316 169.037 450.434 169.518 449.673L199.454 402.25H200.323C202.1 402.25 203.216 404.176 202.317 405.716L178.393 447.047C177.504 448.577 178.61 450.483 180.367 450.483H238.879C239.778 450.483 240.587 450.848 241.179 451.441C241.814 452.072 242.189 452.974 242.12 453.966Z" fill="#527A62"/>
<path d="M431.651 450.197C407.443 457.539 317.787 456.976 317.787 456.976L433.625 426.153C445.738 422.929 453.452 411.076 451.482 398.698C446.391 366.697 436.537 309.277 429.302 295.137C430.085 295.6 430.867 296.151 431.65 296.812C431.65 296.812 447.502 320.435 463.861 368.951C480.221 417.478 455.871 442.866 431.651 450.197Z" fill="#D3AA7D"/>
<path d="M424.82 408.461C424.82 408.461 441.383 408.228 454.835 420.51" stroke="#9C897A" stroke-miterlimit="10" stroke-linecap="round" stroke-linejoin="round"/>
<path d="M390.161 273.762C390.161 273.762 411.956 281.173 422.69 293.88" stroke="#E5BC89" stroke-miterlimit="10" stroke-linecap="round" stroke-linejoin="round"/>
<path d="M281.669 366.648C281.669 366.648 293.705 382.239 295.246 400.192" stroke="#9C897A" stroke-miterlimit="10" stroke-linecap="round" stroke-linejoin="round"/>
<path d="M343.926 275.698C343.926 275.698 339.35 288.537 358.462 290.112C377.575 291.688 398.524 272.938 398.524 272.938" stroke="#E5BC89" stroke-miterlimit="10" stroke-linecap="round" stroke-linejoin="round"/>
<path d="M317.787 433.488L313.312 452.786L318.218 453.541L320.716 433.488H317.787Z" fill="#D37A57"/>
<path d="M357.089 285.074C357.089 285.074 351.422 301.221 347.481 342.981" stroke="#E5BC89" stroke-miterlimit="10" stroke-linecap="round" stroke-linejoin="round"/>
<path d="M393.69 186.963C393.69 186.963 384.763 184.851 376.685 187.957" stroke="#543E2F" stroke-miterlimit="10" stroke-linecap="round" stroke-linejoin="round"/>
<path d="M335.061 182.332C335.061 182.332 334.161 195.405 350.701 197.273" stroke="#543E2F" stroke-miterlimit="10" stroke-linecap="round" stroke-linejoin="round"/>
<path d="M395.162 178.344C395.162 178.344 397.087 183.539 395.421 186.783" stroke="#543E2F" stroke-miterlimit="10" stroke-linecap="round" stroke-linejoin="round"/>
<path d="M320.258 173.043C320.258 173.043 319.513 181.071 327.715 184.229" stroke="#543E2F" stroke-miterlimit="10" stroke-linecap="round" stroke-linejoin="round"/>
<path d="M323.242 187.957C323.242 187.957 321.719 193.966 327.389 196.554" stroke="#543E2F" stroke-miterlimit="10" stroke-linecap="round" stroke-linejoin="round"/>
<path d="M349.714 167.449C349.714 167.449 360.292 162.81 375.317 169.561C388.869 175.651 390.161 183.233 390.161 183.233" stroke="#543E2F" stroke-miterlimit="10" stroke-linecap="round" stroke-linejoin="round"/>
<path d="M395.162 190.191C395.162 190.191 398.144 191.6 398.144 195.826C398.144 200.051 396.099 204.36 396.099 204.36" stroke="#543E2F" stroke-miterlimit="10" stroke-linecap="round" stroke-linejoin="round"/>
<path d="M345.489 188.703C345.489 188.703 347.599 194.295 359.904 194.917C372.209 195.539 376.187 195.539 379.543 199.515C382.899 203.493 381.781 207.843 381.781 207.843" stroke="#543E2F" stroke-miterlimit="10" stroke-linecap="round" stroke-linejoin="round"/>
<path d="M340.88 58.9609H228.889C222.404 58.9609 217.146 64.2192 217.146 70.7048V89.8796C217.146 96.3651 222.404 101.622 228.889 101.622H243.722L240.271 113.54C239.628 115.759 242.074 117.593 244.024 116.355L267.247 101.622H340.88C347.366 101.622 352.623 96.3651 352.623 89.8796V70.7048C352.624 64.2192 347.366 58.9609 340.88 58.9609Z" fill="#D9D9D9"/>
<path d="M232.377 70.4375H338.048" stroke="white" stroke-miterlimit="10" stroke-linecap="round" stroke-linejoin="round"/>
<path d="M232.377 79.4062H338.048" stroke="white" stroke-miterlimit="10" stroke-linecap="round" stroke-linejoin="round"/>
<path d="M232.377 88.3711H338.048" stroke="white" stroke-miterlimit="10" stroke-linecap="round" stroke-linejoin="round"/>
<path d="M158.427 270.582C211.087 270.582 253.777 227.893 253.777 175.232C253.777 122.572 211.087 79.8828 158.427 79.8828C105.767 79.8828 63.0776 122.572 63.0776 175.232C63.0776 227.893 105.767 270.582 158.427 270.582Z" stroke="#BBBFBD" stroke-miterlimit="10"/>
<path d="M247.725 175.226C247.725 208.55 229.47 237.609 202.418 252.954C199.387 254.673 196.245 256.229 193.015 257.583C182.377 262.059 170.692 264.528 158.434 264.528C157.619 264.528 156.814 264.517 156.009 264.495C155.512 264.483 155.017 264.461 154.52 264.429C154.168 264.429 153.826 264.418 153.473 264.385C152.944 264.362 152.415 264.329 151.897 264.286C151.676 264.274 151.456 264.264 151.235 264.23C150.607 264.197 149.99 264.132 149.372 264.076C148.656 263.999 147.95 263.922 147.245 263.834L169.326 231.898L110.668 168.302L72.3936 199.224C71.9969 197.791 71.6327 196.357 71.3021 194.891C71.1814 194.34 71.0596 193.778 70.9494 193.227C70.7952 192.499 70.6513 191.76 70.5307 191.033C70.4425 190.548 70.3544 190.063 70.2882 189.578C70.1664 188.884 70.0678 188.178 69.9681 187.473C69.9124 187.076 69.8579 186.69 69.8138 186.293C69.7361 185.687 69.6595 185.07 69.6038 184.452L69.5702 184.088C69.5041 183.427 69.438 182.766 69.3939 182.093C69.3382 181.354 69.2837 180.616 69.25 179.866V179.822C69.206 179.061 69.1723 178.301 69.1619 177.528C69.1398 176.767 69.1294 175.996 69.1294 175.225C69.1294 160.397 72.7451 146.419 79.139 134.117C92.4234 108.543 117.723 90.2105 147.564 86.5844C151.125 86.154 154.751 85.9336 158.433 85.9336C173.425 85.9336 187.569 89.6375 199.97 96.1741L161.079 127.581L187.04 206.301L237.385 133.501C243.988 145.947 247.725 160.156 247.725 175.226Z" fill="#B19E7F"/>
<path d="M78.9037 134.039L110.431 168.223L72.1571 199.145C71.7604 197.713 71.3962 196.279 71.0656 194.813C70.9449 194.262 70.8231 193.699 70.7129 193.148C70.5586 192.421 70.4148 191.682 70.2942 190.954C70.206 190.47 70.1178 189.985 70.0517 189.5C69.9311 188.805 69.8313 188.1 69.7316 187.394C69.6759 186.998 69.6214 186.611 69.5773 186.215C69.4996 185.608 69.423 184.991 69.3673 184.374L69.3348 184.01C69.2687 183.348 69.2026 182.687 69.1585 182.014C69.104 181.275 69.0483 180.538 69.0147 179.787V179.743C68.9706 178.982 68.9381 178.222 68.9265 177.45C68.9045 176.689 68.894 175.917 68.894 175.146C68.894 160.319 72.5098 146.341 78.9037 134.039Z" fill="#9F8E72"/>
<path d="M192.779 257.506C182.14 261.981 170.456 264.451 158.197 264.451C157.381 264.451 156.576 264.44 155.771 264.417C155.275 264.406 154.779 264.384 154.283 264.351C153.93 264.351 153.588 264.34 153.235 264.307C152.706 264.285 152.177 264.252 151.659 264.209C151.439 264.197 151.218 264.187 150.998 264.153C150.369 264.121 149.752 264.054 149.135 263.999C148.418 263.922 147.713 263.844 147.007 263.756L169.088 231.82L192.779 257.506Z" fill="#9F8E72"/>
<path d="M199.735 96.0959L160.844 127.503L147.329 86.5062C150.89 86.0759 154.516 85.8555 158.198 85.8555C173.19 85.8543 187.332 89.5582 199.735 96.0959Z" fill="#9F8E72"/>
<path d="M247.489 175.146C247.489 208.47 229.234 237.53 202.181 252.874L186.803 206.222L237.148 133.422C243.752 145.868 247.489 160.076 247.489 175.146Z" fill="#9F8E72"/>
<path d="M169.089 231.818L147.008 263.754C146.446 263.688 145.884 263.611 145.322 263.522C144.859 263.456 144.396 263.39 143.933 263.313C143.415 263.237 142.908 263.147 142.389 263.049C141.706 262.928 141.023 262.806 140.338 262.662C139.754 262.542 139.17 262.42 138.596 262.288C138.232 262.21 137.869 262.122 137.504 262.034C137.02 261.924 136.545 261.802 136.06 261.681C134.484 261.284 132.929 260.832 131.387 260.347C130.824 260.171 130.263 259.994 129.712 259.807C128.962 259.552 128.223 259.3 127.496 259.024C126.813 258.781 126.13 258.517 125.457 258.252C124.773 257.988 124.101 257.712 123.439 257.425C122.778 257.149 122.117 256.862 121.466 256.566C121.466 256.566 121.456 256.566 121.444 256.554C120.783 256.256 120.132 255.947 119.482 255.639C117.497 254.691 115.568 253.665 113.672 252.574C113.077 252.221 112.482 251.869 111.897 251.516C110.663 250.777 109.45 249.995 108.27 249.19C107.675 248.794 107.09 248.385 106.507 247.966C105.922 247.558 105.339 247.129 104.765 246.699C104.743 246.687 104.721 246.665 104.688 246.643C104.148 246.235 103.597 245.816 103.068 245.397C102.593 245.022 102.13 244.658 101.667 244.273C100.984 243.722 100.311 243.149 99.6502 242.575C99.1433 242.134 98.6468 241.693 98.1515 241.241C97.655 240.788 97.1597 240.326 96.6632 239.863C96.6075 239.807 96.553 239.763 96.5089 239.719C96.024 239.244 95.5392 238.771 95.0543 238.286C94.6355 237.867 94.2168 237.437 93.798 237.008C93.225 236.413 92.6519 235.806 92.0998 235.189C91.6149 234.66 91.1404 234.119 90.6776 233.579C90.3029 233.16 89.9503 232.73 89.5976 232.301C89.3772 232.058 89.1789 231.816 88.9805 231.562C88.6279 231.131 88.2857 230.702 87.9446 230.272C87.5584 229.787 87.1837 229.302 86.8206 228.806C86.3241 228.155 85.8392 227.505 85.3764 226.832C84.9576 226.248 84.5493 225.664 84.1526 225.068C83.8661 224.649 83.59 224.23 83.3151 223.8C83.1388 223.546 82.9729 223.282 82.8082 223.017C82.0588 221.849 81.3315 220.647 80.6366 219.434C80.3165 218.861 79.9975 218.288 79.6773 217.703C78.95 216.369 78.2552 215.013 77.6044 213.635C77.3179 213.062 77.0534 212.477 76.7889 211.894C76.5128 211.277 76.2379 210.66 75.9734 210.043C75.9514 209.998 75.941 209.943 75.9189 209.899C75.6428 209.248 75.3679 208.587 75.1034 207.926C75.1034 207.904 75.0918 207.881 75.0814 207.849C74.8169 207.188 74.5629 206.515 74.3204 205.843C74.078 205.204 73.846 204.553 73.6256 203.892C73.4272 203.308 73.2289 202.713 73.041 202.117C72.9087 201.677 72.7649 201.224 72.6326 200.783C72.6222 200.75 72.6106 200.728 72.6106 200.695C72.4563 200.177 72.302 199.659 72.1582 199.141L110.432 168.219L169.089 231.818Z" fill="#8E7E66"/>
<path d="M237.148 133.42L186.803 206.221L160.842 127.501L199.734 96.0938C215.664 104.471 228.738 117.512 237.148 133.42Z" fill="#8E7E66"/>
<path d="M186.803 206.221L169.089 231.818L110.431 168.222L160.842 127.5L186.803 206.221Z" fill="#9F8E72"/>
<path d="M174.728 162.726L175.008 158.025L178.146 156.527C187.127 152.241 192.848 143.175 192.848 133.223C192.848 124.572 190.099 116.15 184.999 109.168L181.496 104.371L151.63 114.37L151.89 125.589H149.918C145.912 125.589 142.664 128.835 142.664 132.842C142.664 136.848 145.911 140.096 149.918 140.096H152.225L152.576 155.323V160.668C152.576 160.668 147.182 165.865 136.945 170.274C136.945 170.274 148.359 184.605 167.219 185.55C186.079 186.496 186.806 175.154 186.806 175.154C186.806 175.154 178.985 170.473 174.5 166.595L174.728 162.726Z" fill="#FF996A"/>
<path d="M175.009 158.024L174.728 162.725C173.933 162.631 173.1 162.507 172.236 162.35C158.881 159.915 153.653 147.844 154.195 141.625C154.195 141.625 158.699 156.583 175.009 158.024Z" fill="#D37A57"/>
<path d="M149.691 130.763C150.25 131.187 150.765 131.747 150.95 132.446C150.95 132.446 149.835 132.818 149.733 134.068C149.632 135.319 150.95 135.859 150.95 135.859C150.95 135.859 149.936 137.548 148.247 136.636C146.558 135.725 146.838 132.539 148.517 131.872C148.517 131.872 145.848 131.568 144.868 132.549C144.868 132.549 144.644 131.566 145.76 130.696C146.911 129.801 148.529 129.883 149.691 130.763Z" fill="#D37A57"/>
<path d="M174.366 121.926C174.21 121.931 174.055 121.988 173.927 122.098C171.377 124.327 168.755 122.573 168.728 122.555C168.41 122.337 167.976 122.418 167.758 122.736C167.54 123.054 167.621 123.487 167.938 123.706C169.153 124.538 172.159 125.497 174.845 123.149C175.135 122.896 175.165 122.455 174.911 122.165C174.769 122 174.566 121.92 174.366 121.926Z" fill="#3F2D1F"/>
<path d="M190.058 123.641C189.921 123.565 189.759 123.535 189.594 123.566C186.265 124.189 184.897 121.346 184.884 121.317C184.722 120.967 184.307 120.817 183.958 120.98C183.608 121.142 183.458 121.557 183.62 121.906C184.243 123.242 186.345 125.594 189.85 124.939C190.23 124.868 190.479 124.504 190.407 124.124C190.367 123.91 190.234 123.738 190.058 123.641Z" fill="#3F2D1F"/>
<path d="M173.984 130.219C173.984 130.219 173.98 132.936 170.423 133.386C166.867 133.836 166.219 130.219 166.219 130.219C166.219 130.219 168.239 128.326 170.85 128.271C173.46 128.215 173.984 130.219 173.984 130.219Z" fill="white"/>
<path d="M190.23 130.221C190.23 130.221 190.225 132.937 186.746 133.387C183.268 133.839 182.801 130.223 182.801 130.223C182.801 130.223 184.61 128.326 187.164 128.271C189.717 128.216 190.23 130.221 190.23 130.221Z" fill="white"/>
<path d="M182.8 130.223C182.8 130.223 184.663 128.175 186.658 127.808C188.652 127.44 190.021 128.411 190.23 130.223C190.23 130.223 189.835 128.726 187.839 128.543C185.845 128.36 182.8 130.223 182.8 130.223Z" fill="#3F2D1F"/>
<path d="M166.219 130.221C166.219 130.221 168.167 128.082 170.251 127.698C172.336 127.314 173.766 128.329 173.983 130.221C173.983 130.221 173.57 128.657 171.486 128.466C169.401 128.274 166.219 130.221 166.219 130.221Z" fill="#3F2D1F"/>
<path d="M179.384 130.297L181.024 140.196C181.024 140.196 182.329 140.297 184.136 139.561C184.136 139.561 179.852 131.409 179.384 130.297Z" fill="#D37A57"/>
<path d="M168.341 130.916C168.341 132.475 169.34 133.738 170.572 133.738C171.803 133.738 172.802 132.475 172.802 130.916C172.802 129.358 171.803 128.094 170.572 128.094C169.34 128.094 168.341 129.358 168.341 130.916Z" fill="#3F2D1F"/>
<path d="M183.981 131.004C183.981 132.514 184.955 133.738 186.157 133.738C187.359 133.738 188.332 132.514 188.332 131.004C188.332 129.493 187.358 128.27 186.157 128.27C184.954 128.27 183.981 129.493 183.981 131.004Z" fill="#3F2D1F"/>
<path d="M163.963 140.203C165.76 140.203 167.217 139.205 167.217 137.974C167.217 136.744 165.76 135.746 163.963 135.746C162.166 135.746 160.709 136.744 160.709 137.974C160.709 139.205 162.166 140.203 163.963 140.203Z" fill="#D37A57"/>
<path d="M190.537 139.136C192.335 139.136 193.792 138.139 193.792 136.908C193.792 135.677 192.335 134.68 190.537 134.68C188.74 134.68 187.282 135.677 187.282 136.908C187.282 138.139 188.74 139.136 190.537 139.136Z" fill="#D37A57"/>
<path d="M180.566 144.013C180.566 144.013 175.31 144.19 173.184 146.139C171.057 148.088 178.912 148.678 180.566 147.91C182.219 147.144 182.954 143.767 180.566 144.013Z" fill="white"/>
<path d="M167.755 129.155C167.755 129.155 166.707 129.651 165.566 128.918C165.566 128.918 165.673 129.992 166.22 130.219L167.755 129.155Z" fill="#3F2D1F"/>
<path d="M189.026 128.426C189.026 128.426 190.262 129.449 191.202 129.135C191.548 129.019 190.233 130.223 190.233 130.223C189.92 129.081 189.026 128.426 189.026 128.426Z" fill="#3F2D1F"/>
<path d="M196.204 180.879C196.204 180.879 212.929 211.447 219.306 237.081L202.062 247.123C202.062 247.123 195.207 233.422 192.847 212.398C190.487 191.373 196.204 180.879 196.204 180.879Z" fill="#847062"/>
<path d="M186.803 111.859C186.803 111.859 170.092 127.674 154.818 125.942C154.818 125.942 153.163 137.045 155.92 141.297C155.92 141.297 154.739 142.468 153.084 138.024C151.43 133.58 152.736 127.441 151.886 125.59C151.886 125.59 146.789 124.382 143.44 129.572C140.091 134.762 147.421 141.099 152.221 140.096L152.442 149.639C152.442 149.639 146.942 151.691 142.296 147.754C137.651 143.817 139.935 139.801 139.935 139.801C139.935 139.801 132.927 132.884 132.612 123.278C132.296 113.672 140.289 107.635 140.289 107.635C140.289 107.635 142.926 93.4229 160.485 93.2652C178.044 93.1074 183.162 98.3831 183.162 98.3831C183.162 98.3831 194.496 100.312 197.69 112.36C200.883 124.408 192.846 130.85 192.846 130.85C192.846 130.85 190.522 115.414 186.803 111.859Z" fill="#3F2D1F"/>
<path d="M143.243 105.981C143.243 105.981 142.399 95.6593 132.604 96.0955C122.81 96.5316 120.92 107.752 125.171 112.949C129.424 118.146 134.975 116.965 139.109 112.949C143.243 108.934 143.243 105.981 143.243 105.981Z" fill="#3F2D1F"/>
<path d="M156.025 146.596L149.852 159.45C149.631 159.913 149.046 160.045 148.639 159.736L148.385 159.538L128.157 143.906C127.849 143.663 127.749 143.233 127.937 142.88L134.914 130.104L135.08 129.806C135.312 129.365 135.896 129.255 136.282 129.574L155.816 145.635C156.091 145.868 156.179 146.265 156.025 146.596Z" fill="white"/>
<path d="M198.599 254.914C186.528 261.01 172.881 264.439 158.429 264.439C146.534 264.439 135.18 262.113 124.806 257.88L118.202 182.246C118.202 182.246 119.558 177.032 127.649 174.055C136.843 170.66 136.942 170.273 136.942 170.273C171.987 187.911 186.802 175.145 186.802 175.145L194.519 179.07C195.28 179.456 195.875 180.095 196.205 180.878C198.024 185.233 204.054 200.335 204.66 210.741C205.136 219.033 201.212 241.311 198.599 254.914Z" fill="#9C897A"/>
<path d="M122.071 177.113C122.071 177.113 113.525 180.506 110.431 202.869C107.336 225.231 110.64 237.079 110.64 237.079L127.651 216.885C127.651 216.885 133.475 185.927 122.071 177.113Z" fill="#9C897A"/>
<path d="M147.471 144.406C145.84 145.348 141.594 148.317 140.836 149.568C140.471 150.17 140.32 150.855 140.257 151.41L139.19 150.878C139.728 148.576 140.722 146.276 140.722 146.276C140.722 146.276 142.414 145.37 143.36 144.031C144.305 142.693 143.95 141.623 143.95 141.623C143.305 141.995 142.267 142.674 141.185 143.442C141.2 143.421 141.219 143.403 141.234 143.38C142.178 142.042 141.824 140.972 141.824 140.972C140.13 141.95 135.722 145.033 134.935 146.333C134.51 147.033 134.364 147.841 134.315 148.443L134.017 148.294C134.523 145.859 135.644 143.262 135.644 143.262C135.644 143.262 137.336 142.356 138.281 141.018C139.226 139.679 138.872 138.609 138.872 138.609C137.178 139.587 132.77 142.671 131.983 143.97C131.195 145.269 131.353 146.961 131.353 146.961L131.983 158.064L132.603 170.268C132.603 170.268 110.171 221.607 110.431 234.127C110.691 246.647 118.203 251.607 118.203 251.607C118.203 251.607 126.235 250.662 131.353 242.755C136.471 234.849 141.195 174.598 141.195 174.598C141.195 174.598 143.873 170.504 144.345 166.587C144.817 162.671 143.019 152.787 143.019 152.787C143.552 150.76 144.362 148.883 144.362 148.883C144.362 148.883 145.993 148.011 146.903 146.722C147.812 145.435 147.471 144.406 147.471 144.406Z" fill="#FF996A"/>
<path d="M156.025 146.595L149.851 159.449C149.631 159.911 149.046 160.044 148.639 159.735L148.385 159.537L154.625 146.121L134.914 130.104L135.08 129.806C135.312 129.365 135.895 129.255 136.282 129.574L155.816 145.635C156.091 145.867 156.179 146.264 156.025 146.595Z" fill="#D9D9D9"/>
<path d="M134.915 132.672L134.059 134.355L138.312 137.779L139.286 136.155L134.915 132.672Z" fill="#D9D9D9"/>
<path d="M257.89 183.352L253.125 184.238L252.996 183.816C254.374 183.345 257.612 182.071 258.923 180.106C260.607 177.58 261.197 175.137 261.197 175.137C261.197 175.137 258.278 176.665 257.154 179.581L254.896 180.001C255.801 179.44 256.64 178.762 257.166 177.972C258.851 175.444 259.441 173.002 259.441 173.002C259.441 173.002 256.522 174.53 255.397 177.446L252.551 177.975C253.732 177.049 254.968 175.84 255.484 174.532C256.6 171.708 256.663 169.195 256.663 169.195C256.663 169.195 254.131 171.303 253.645 174.39L250.515 175.697L236.818 179.975L236.921 177.997C236.921 177.997 237.437 177.688 238.884 176.551C240.33 175.414 242.135 170.696 242.135 170.696C242.135 170.696 234.957 174.071 233.208 177.79C231.459 181.509 229.792 190.704 229.792 190.704C229.792 190.704 213.33 230.317 210.407 241.23C210.407 241.23 204.753 243.417 202.063 247.121C202.063 247.121 207.811 257.672 212.378 258.774C212.378 258.774 225.606 256.254 231.905 240.821C238.204 225.387 240.742 194.214 240.742 194.214L253.965 186.983C253.965 186.983 257.96 185.846 259.337 183.78C260.715 181.714 261.196 179.717 261.196 179.717C261.196 179.717 258.809 180.968 257.89 183.352Z" fill="#FF996A"/>
<path d="M198.996 228.308C198.996 228.308 191.251 226.816 177.994 226.816C164.738 226.816 151.48 229.302 151.48 229.302" stroke="#847062" stroke-miterlimit="10" stroke-linecap="round" stroke-linejoin="round"/>
<path d="M185.037 102.531C185.037 102.531 187.17 106.464 186.987 109.159" stroke="#543E2F" stroke-miterlimit="10" stroke-linecap="round" stroke-linejoin="round"/>
<path d="M181.761 99.5508C181.761 99.5508 173.105 102.368 168.341 109.163" stroke="#543E2F" stroke-miterlimit="10" stroke-linecap="round" stroke-linejoin="round"/>
<path d="M141.619 103.941C141.619 103.941 140.211 107.09 140.127 108.25C140.127 108.25 135.501 112.558 134.914 115.044" stroke="#543E2F" stroke-miterlimit="10" stroke-linecap="round" stroke-linejoin="round"/>
<path d="M124.219 115.625C124.551 115.873 129.126 119.339 133.819 116.418" stroke="#543E2F" stroke-miterlimit="10" stroke-linecap="round" stroke-linejoin="round"/>
<path d="M147.327 102.534C147.327 102.534 158.065 92.6318 175.839 97.8518" stroke="#543E2F" stroke-miterlimit="10" stroke-linecap="round" stroke-linejoin="round"/>
<path d="M149.491 122.981C149.491 122.981 154.103 124.84 163.963 122.981C173.823 121.121 182.8 111.023 182.8 111.023" stroke="#543E2F" stroke-miterlimit="10" stroke-linecap="round" stroke-linejoin="round"/>
<path d="M145.508 177.113C145.508 177.113 158.992 182.737 172.802 181.909C186.612 181.08 188.332 178.595 188.332 178.595" stroke="#847062" stroke-miterlimit="10" stroke-linecap="round" stroke-linejoin="round"/>
</g>
<defs>
<clipPath id="clip0_1429_4730">
<rect width="580" height="580" fill="white"/>
</clipPath>
</defs>
</svg>
