<svg width="33" height="32" viewBox="0 0 33 32" fill="none" xmlns="http://www.w3.org/2000/svg">
<path d="M27.8617 8.40513C29.1482 8.40513 30.1947 7.35862 30.1947 6.07262C30.1947 4.78662 29.1482 3.74013 27.8617 3.74013C27.2433 3.74079 26.6504 3.98674 26.2131 4.42403C25.7758 4.86131 25.5299 5.45421 25.5292 6.07262C25.5292 6.46112 25.6337 6.82212 25.8027 7.14462L23.7592 8.84713C22.9883 8.07085 22.0713 7.45487 21.0612 7.03472C20.0511 6.61457 18.9677 6.39855 17.8737 6.39912C17.7277 6.39912 17.5857 6.41362 17.4417 6.42112L17.2057 4.31763C17.5012 4.18496 17.7522 3.96986 17.9285 3.69812C18.1048 3.42638 18.199 3.10955 18.1997 2.78562C18.1997 1.85763 17.4442 1.10212 16.5162 1.10212C15.5882 1.10212 14.8327 1.85763 14.8327 2.78562C14.8336 3.18097 14.9736 3.56338 15.2282 3.86581C15.4828 4.16824 15.8358 4.37139 16.2252 4.43963L16.4597 6.52863C15.3886 6.71303 14.3645 7.10724 13.4462 7.68862L11.0482 4.34313C11.4379 3.91783 11.6549 3.36244 11.6567 2.78562C11.6567 1.49962 10.6102 0.453125 9.3242 0.453125C8.0382 0.453125 6.9917 1.49962 6.9917 2.78562C6.99223 3.40413 7.23813 3.99715 7.67543 4.43454C8.11273 4.87194 8.7057 5.11796 9.3242 5.11862C9.6532 5.11862 9.9652 5.04862 10.2497 4.92512L12.6407 8.26113C11.0065 9.5875 9.93675 11.4848 9.6477 13.5696L6.8677 13.4881C6.76205 12.9643 6.47766 12.4934 6.0632 12.1561C5.6482 11.8211 5.13106 11.6381 4.5977 11.6376C3.8892 11.6376 3.2277 11.9531 2.7827 12.5036C2.58949 12.7415 2.44533 13.0153 2.35857 13.3093C2.2718 13.6032 2.24415 13.9114 2.2772 14.2161C2.30859 14.5209 2.40015 14.8165 2.54657 15.0856C2.69299 15.3548 2.89137 15.5922 3.1302 15.7841C3.5452 16.1192 4.06234 16.3021 4.5957 16.3026C4.94376 16.3033 5.28754 16.2259 5.60168 16.076C5.91581 15.9261 6.19229 15.7076 6.4107 15.4366C6.63413 15.1562 6.78938 14.8278 6.8642 14.4771L9.5672 14.5561C9.5662 14.6091 9.5592 14.6606 9.5592 14.7136C9.5592 16.9356 10.4402 18.9521 11.8652 20.4451L10.7827 21.6081C10.5557 21.4956 10.3061 21.4362 10.0527 21.4346C9.1247 21.4346 8.3692 22.1901 8.3692 23.1181C8.3692 24.0461 9.1247 24.8016 10.0527 24.8016C10.9807 24.8016 11.7362 24.0461 11.7362 23.1181C11.7362 22.8126 11.6482 22.5296 11.5052 22.2821L12.5837 21.1236C14.0705 22.3561 15.9415 23.0299 17.8727 23.0281C18.1352 23.0281 18.3942 23.0126 18.6502 22.9886L19.2762 27.0431C18.7359 27.2483 18.2916 27.6477 18.0302 28.1631C17.7516 28.7153 17.7033 29.3555 17.8959 29.9432C18.0885 30.531 18.5063 31.0184 19.0577 31.2986C19.3827 31.4631 19.7467 31.5501 20.1092 31.5501C20.9942 31.5501 21.7922 31.0601 22.1922 30.2711C22.3314 29.998 22.415 29.7 22.4382 29.3944C22.4614 29.0888 22.4236 28.7816 22.3272 28.4906C22.1828 28.0461 21.9074 27.6557 21.537 27.3706C21.1667 27.0855 20.7188 26.9191 20.2522 26.8931L19.6262 22.8381C22.5277 22.2121 24.8682 20.0686 25.7757 17.2811L27.3737 17.6971C27.3925 18.1295 27.5771 18.5379 27.8892 18.8377C28.2014 19.1374 28.617 19.3054 29.0497 19.3066C29.9782 19.3066 30.7337 18.5511 30.7337 17.6231C30.7337 16.6951 29.9782 15.9396 29.0497 15.9396C28.7631 15.9403 28.4815 16.0143 28.2316 16.1546C27.9818 16.2949 27.772 16.4968 27.6222 16.7411L26.0262 16.3256C26.1292 15.8036 26.1862 15.2651 26.1862 14.7136C26.1862 12.7811 25.5177 11.0051 24.4077 9.59163L26.4332 7.90412C26.8398 8.22635 27.3429 8.40277 27.8617 8.40513ZM15.8202 2.78513C15.8202 2.40163 16.1322 2.08963 16.5157 2.08963C16.8992 2.08963 17.2112 2.40163 17.2112 2.78513C17.2044 2.96502 17.1281 3.13527 16.9984 3.26013C16.8687 3.38499 16.6957 3.45475 16.5157 3.45475C16.3357 3.45475 16.1627 3.38499 16.033 3.26013C15.9033 3.13527 15.827 2.96502 15.8202 2.78513ZM7.9797 2.78513C7.9797 2.04362 8.5827 1.44062 9.3242 1.44062C10.0657 1.44062 10.6687 2.04362 10.6687 2.78513C10.6687 3.52663 10.0657 4.13013 9.3242 4.13013C8.5827 4.13013 7.9797 3.52663 7.9797 2.78513ZM5.6427 14.8146C5.1912 15.3731 4.3112 15.4671 3.7517 15.0151C3.61402 14.9044 3.49964 14.7676 3.41519 14.6124C3.33075 14.4572 3.2779 14.2868 3.2597 14.1111C3.24065 13.9355 3.25661 13.7579 3.30664 13.5884C3.35668 13.419 3.4398 13.2612 3.5512 13.1241C3.67715 12.9677 3.83662 12.8417 4.01785 12.7552C4.19907 12.6687 4.39741 12.6241 4.5982 12.6246C4.9082 12.6246 5.2007 12.7276 5.4422 12.9231C5.7217 13.1491 5.8962 13.4701 5.9342 13.8271C5.95321 14.0028 5.93724 14.1805 5.8872 14.35C5.83717 14.5195 5.75407 14.6774 5.6427 14.8146ZM21.3897 28.7976C21.4453 28.9653 21.467 29.1423 21.4536 29.3185C21.4403 29.4946 21.392 29.6663 21.3117 29.8236C21.2 30.0461 21.0283 30.233 20.8162 30.3633C20.604 30.4936 20.3597 30.5621 20.1107 30.5611C19.8813 30.5605 19.6558 30.5012 19.4558 30.3888C19.2557 30.2765 19.0877 30.1149 18.9677 29.9193C18.8477 29.7238 18.7797 29.5008 18.7702 29.2716C18.7606 29.0423 18.8099 28.8145 18.9132 28.6096C19.0249 28.3871 19.1966 28.2002 19.4087 28.0699C19.6209 27.9396 19.8652 27.8711 20.1142 27.8721C20.3262 27.8721 20.5297 27.9206 20.7197 28.0171C20.8774 28.0965 21.0179 28.2063 21.1329 28.3403C21.2479 28.4742 21.3352 28.6297 21.3897 28.7976ZM29.0512 16.9271C29.4352 16.9271 29.7472 17.2391 29.7472 17.6226C29.7472 18.0061 29.4352 18.3181 29.0512 18.3181C28.6677 18.3181 28.3557 18.0061 28.3557 17.6226C28.3557 17.2391 28.6677 16.9271 29.0512 16.9271ZM10.0532 23.8136C9.6697 23.8136 9.3577 23.5016 9.3577 23.1181C9.3577 22.7346 9.6697 22.4226 10.0532 22.4226C10.4367 22.4226 10.7487 22.7346 10.7487 23.1181C10.7487 23.5016 10.4372 23.8136 10.0532 23.8136ZM17.8737 22.0396C13.8337 22.0396 10.5477 18.7531 10.5477 14.7131C10.5477 10.6731 13.8342 7.38713 17.8737 7.38713C21.9132 7.38713 25.1997 10.6731 25.1997 14.7131C25.1997 18.7531 21.9132 22.0396 17.8737 22.0396ZM27.8617 4.72762C28.6032 4.72762 29.2067 5.33063 29.2067 6.07212C29.2067 6.81362 28.6032 7.41663 27.8617 7.41663C27.1202 7.41663 26.5172 6.81362 26.5172 6.07212C26.5172 5.33063 27.1202 4.72762 27.8617 4.72762Z" fill="#B19E7F"/>
<path d="M18.4677 12.5513C18.4677 11.2653 17.4212 10.2188 16.1352 10.2188C14.8492 10.2188 13.8027 11.2653 13.8027 12.5513C13.8027 13.8378 14.8492 14.8843 16.1352 14.8843C17.4212 14.8843 18.4677 13.8378 18.4677 12.5513ZM14.7907 12.5513C14.7907 11.8098 15.3937 11.2068 16.1352 11.2068C16.8767 11.2068 17.4797 11.8098 17.4797 12.5513C17.4797 13.2928 16.8767 13.8963 16.1352 13.8963C15.3937 13.8963 14.7907 13.2928 14.7907 12.5513ZM20.3042 15.2323C20.3042 16.1608 21.0597 16.9163 21.9877 16.9163C22.9157 16.9163 23.6712 16.1608 23.6712 15.2323C23.6712 14.3043 22.9157 13.5488 21.9877 13.5488C21.0597 13.5488 20.3042 14.3043 20.3042 15.2323ZM22.6837 15.2323C22.6837 15.6163 22.3717 15.9283 21.9882 15.9283C21.6047 15.9283 21.2927 15.6163 21.2927 15.2323C21.2927 14.8488 21.6047 14.5368 21.9882 14.5368C22.3717 14.5368 22.6837 14.8488 22.6837 15.2323ZM17.8062 16.8348C16.8782 16.8348 16.1227 17.5902 16.1227 18.5182C16.1227 19.4462 16.8782 20.2017 17.8062 20.2017C18.7342 20.2017 19.4897 19.4462 19.4897 18.5182C19.4893 18.0719 19.3118 17.6439 18.9962 17.3283C18.6806 17.0126 18.2526 16.8351 17.8062 16.8348ZM17.8062 19.2143C17.4227 19.2143 17.1107 18.9023 17.1107 18.5188C17.1107 18.1353 17.4227 17.8232 17.8062 17.8232C18.1897 17.8232 18.5017 18.1353 18.5017 18.5188C18.5016 18.7032 18.4283 18.88 18.2979 19.0104C18.1675 19.1408 17.9907 19.2141 17.8062 19.2143Z" fill="#B19E7F"/>
</svg>
