<svg width="271" height="316" viewBox="0 0 271 316" fill="none" xmlns="http://www.w3.org/2000/svg">
<g clip-path="url(#clip0_935_7581)">
<path d="M261.621 187.99C261.478 187.813 261.332 187.638 261.183 187.466C253.488 177.938 253.256 159.607 265.33 147.904C266.317 146.949 266.401 145.392 265.52 144.337C264.64 143.283 263.095 143.085 261.976 143.888C256.588 147.75 250.529 149.538 244.676 149.73C243.118 145.86 241 142.24 238.388 138.986L238.327 138.912C233.386 133.195 227.526 128.478 220.909 124.902C209.794 118.896 202.483 110.142 198.555 98.1354C196.215 90.9863 192.622 84.3769 187.873 78.4991L187.811 78.4252C180.438 69.945 170.177 64.7772 158.915 63.8712C147.641 62.964 136.669 66.4386 128.022 73.6599L127.398 74.1815C117.055 82.8191 110.675 95.0615 109.788 107.909C105.747 112.23 101.161 116.738 96.3171 121.496C89.8854 127.814 83.2483 134.343 77.0563 141.241C69.8958 141.738 63.0303 139.053 59.1958 134.611C59.0814 134.467 58.9664 134.33 58.848 134.195C58.3982 133.672 57.7609 133.348 57.0738 133.291C56.3867 133.235 55.705 133.451 55.1759 133.893C54.6466 134.335 54.3125 134.967 54.2456 135.653C54.1788 136.339 54.3845 137.024 54.8185 137.56C54.9301 137.701 55.0479 137.842 55.1662 137.976C61.0047 145.213 61.1635 159.143 51.974 168.048C50.9875 169.003 50.9034 170.561 51.784 171.616C52.6646 172.67 54.2092 172.868 55.3281 172.064C55.7496 171.764 56.1784 171.485 56.6066 171.213C53.6653 178.161 52.2552 184.834 52.3346 191.454C52.3724 194.871 53.8006 197.816 56.4519 199.974C59.1066 202.129 62.2813 202.92 65.6365 202.256C75.3409 200.341 84.8149 196.049 93.028 189.851C99.9685 184.613 106.676 181.137 114.777 178.579C118.779 177.317 122.934 178.532 125.624 181.752C128.313 184.973 128.768 189.278 126.813 192.991C122.852 200.506 118.233 206.49 111.846 212.383C104.283 219.36 98.3706 227.917 94.7573 237.125C93.5088 240.305 93.7184 243.573 95.3657 246.569C95.7423 247.252 96.1675 247.877 96.6415 248.445C98.254 250.376 100.42 251.639 103.016 252.139C128.975 257.158 155.922 238.125 179.695 221.332C185.24 217.414 190.496 213.702 195.465 210.499C208.259 211.915 221.449 207.82 231.791 199.182L232.416 198.661C237.47 194.44 241.485 189.086 244.127 183.083C249.42 184.499 254.045 187.226 257.157 190.829C257.299 191.006 257.445 191.181 257.595 191.353C258.044 191.875 258.682 192.2 259.369 192.256C260.056 192.313 260.738 192.097 261.267 191.655C262.368 190.735 262.527 189.103 261.621 187.99ZM64.4409 152.187C64.5757 149.407 64.3263 146.686 63.7265 144.131C66.1329 145.177 68.7664 145.907 71.5262 146.27C75.4216 146.785 79.3121 146.522 83.0003 145.54C81.3762 148.994 80.4246 152.775 80.2366 156.7C80.1018 159.48 80.3512 162.202 80.951 164.756C78.5446 163.711 75.9111 162.98 73.1513 162.617C69.256 162.103 65.3654 162.365 61.6772 163.348C63.3041 159.897 64.2529 156.112 64.4409 152.187ZM229.05 194.631L228.426 195.153C218.946 203.069 206.834 206.721 195.192 205.175C194.579 205.095 193.957 205.232 193.436 205.564C188.128 208.948 182.56 212.88 176.666 217.044C153.749 233.23 127.781 251.578 104.013 246.986C102.211 246.637 100.853 245.646 99.9692 244.041C99.0852 242.437 98.9787 240.753 99.6473 239.049C102.974 230.576 108.426 222.689 115.409 216.247C122.26 209.927 127.21 203.513 131.46 195.443C134.429 189.812 133.736 183.276 129.656 178.39C125.576 173.505 119.268 171.658 113.198 173.576C104.503 176.323 97.3034 180.05 89.8665 185.662C82.283 191.386 73.5504 195.344 64.6205 197.108C62.821 197.465 61.1866 197.057 59.7654 195.901C58.3413 194.742 57.6076 193.229 57.5888 191.398C57.5019 183.963 59.5569 176.37 63.8485 168.22C72.2825 166.273 80.9769 169.066 85.4873 174.283C85.5989 174.423 85.7167 174.564 85.8351 174.699C86.2849 175.222 86.9222 175.546 87.6093 175.603C88.2964 175.659 88.9781 175.443 89.5073 175.001C90.0365 174.559 90.3706 173.927 90.4375 173.241C90.5043 172.555 90.2986 171.87 89.8646 171.334C89.753 171.194 89.6352 171.053 89.5169 170.918C83.6784 163.681 83.5224 149.755 92.7091 140.846C93.6956 139.891 93.7797 138.333 92.8991 137.279C92.0185 136.224 90.4739 136.026 89.355 136.83C88.5552 137.401 87.7395 137.905 86.9065 138.362C91.2172 133.872 95.6563 129.51 99.9969 125.24C105.144 120.183 110.003 115.408 114.278 110.788C114.698 110.335 114.947 109.746 114.974 109.13C115.528 97.3984 121.283 86.1279 130.76 78.2139L131.384 77.6923C146.968 64.6771 170.475 66.5403 183.808 81.8364C188.14 87.2077 191.419 93.2422 193.553 99.7702C197.859 112.932 206.219 122.942 218.4 129.522C224.443 132.786 229.793 137.09 234.31 142.307C236.066 144.505 237.555 146.875 238.768 149.385C232.057 148.366 226.069 145.285 222.3 140.914C222.157 140.737 222.011 140.562 221.862 140.39C221.412 139.868 220.775 139.543 220.088 139.487C219.401 139.43 218.719 139.646 218.19 140.088C217.661 140.53 217.327 141.163 217.26 141.849C217.193 142.535 217.399 143.22 217.833 143.756C217.975 143.933 218.121 144.108 218.27 144.279C225.965 153.807 226.198 172.139 214.123 183.841C213.136 184.796 213.052 186.354 213.933 187.409C214.814 188.463 216.358 188.661 217.477 187.858C224.103 183.11 231.744 181.489 238.774 182.133C236.463 186.946 233.147 191.207 229.05 194.631ZM240.675 177.086C235.205 176.364 229.743 176.855 224.638 178.474C227.141 173.739 228.597 168.453 228.863 162.942C229.055 158.899 228.608 154.958 227.583 151.328C230.972 152.984 234.773 154.13 238.782 154.658C244.252 155.379 249.713 154.888 254.819 153.269C252.316 158.004 250.859 163.29 250.594 168.801C250.402 172.844 250.849 176.785 251.874 180.415C248.489 178.757 244.69 177.614 240.675 177.086ZM167.702 45.0986C166.716 46.0536 166.632 47.6115 167.512 48.6659C168.393 49.7203 169.937 49.9181 171.056 49.1147C175.657 45.8194 181.429 47.366 183.69 49.9577L183.859 50.1592C184.308 50.6817 184.946 51.0062 185.633 51.0627C186.32 51.1192 187.002 50.9031 187.531 50.4611C188.06 50.0193 188.394 49.387 188.461 48.7008C188.528 48.0146 188.322 47.3297 187.888 46.7939L187.72 46.5925C185.576 43.9088 185.076 37.9531 189.142 34.0103C190.129 33.0553 190.209 31.5002 189.329 30.4458C188.448 29.3914 186.904 29.1936 185.785 29.9969C181.184 33.2922 175.409 31.7423 173.151 29.1539L172.982 28.9525C172.533 28.43 171.895 28.1055 171.208 28.049C170.521 27.9925 169.839 28.2086 169.31 28.6505C168.781 29.0924 168.447 29.7247 168.38 30.4109C168.313 31.0971 168.519 31.782 168.953 32.3177L169.121 32.5192C171.269 35.2001 171.765 41.1586 167.702 45.0986ZM181.391 37.0754C180.882 38.8684 180.714 40.7014 180.845 42.4619C179.084 42.0064 177.257 41.8633 175.447 42.0391C175.943 40.2894 176.127 38.4662 175.993 36.6526C177.754 37.1081 179.581 37.2512 181.391 37.0754ZM169.799 263.683L169.631 263.481C167.487 260.798 166.987 254.842 171.053 250.899C172.04 249.944 172.124 248.386 171.243 247.332C170.363 246.277 168.818 246.08 167.699 246.883C163.098 250.178 157.326 248.632 155.065 246.04L154.897 245.838C154.447 245.316 153.81 244.991 153.122 244.935C152.435 244.878 151.754 245.094 151.224 245.536C150.695 245.978 150.361 246.611 150.294 247.297C150.227 247.983 150.433 248.668 150.867 249.204L151.035 249.405C153.18 252.089 153.679 258.044 149.613 261.987C148.627 262.942 148.542 264.5 149.423 265.555C150.304 266.609 151.848 266.807 152.967 266.003C157.568 262.708 163.343 264.258 165.601 266.846L165.77 267.048C166.219 267.57 166.857 267.895 167.544 267.951C168.231 268.008 168.913 267.792 169.442 267.35C169.971 266.908 170.305 266.276 170.372 265.59C170.439 264.903 170.233 264.218 169.799 263.683ZM157.365 258.922C157.86 257.172 158.045 255.349 157.911 253.536C159.671 253.991 161.498 254.134 163.308 253.958C162.799 255.752 162.632 257.585 162.762 259.345C161.001 258.893 159.175 258.75 157.365 258.922Z" fill="#B19E7F" fill-opacity="0.56"/>
</g>
<defs>
<clipPath id="clip0_935_7581">
<rect width="224" height="224" fill="white" transform="translate(172.455) rotate(50.1333)"/>
</clipPath>
</defs>
</svg>
