<svg width="32" height="32" viewBox="0 0 32 32" fill="none" xmlns="http://www.w3.org/2000/svg">
<path d="M6 9.33325C4.15844 9.33325 2.66675 7.84156 2.66675 6C2.66675 4.15844 4.15844 2.66675 6 2.66675C7.84156 2.66675 9.33325 4.15844 9.33325 6C9.33325 7.84156 7.84156 9.33325 6 9.33325ZM6 4C4.89988 4 4 4.89988 4 6C4 7.10012 4.89988 8 6 8C7.10012 8 8 7.10012 8 6C8 4.89988 7.10012 4 6 4ZM6.70825 30H5.29175C4.34156 30 3.51662 29.325 3.33325 28.3916L1.93338 21.3333C0.858375 21.2917 0 20.4167 0 19.3333V14C0 12.1584 1.49169 10.6667 3.33325 10.6667H6.66675V12H3.33325C2.23338 12 1.33325 12.8999 1.33325 14V19.3333C1.33325 19.6999 1.63325 20 2 20H3.02487L4.63331 28.1333C4.69163 28.4416 4.96656 28.6667 5.28344 28.6667H6.7C7.01669 28.6667 7.29181 28.4416 7.35019 28.1333L8.16675 24L9.47513 24.2583L8.65844 28.3916C8.48344 29.3249 7.65844 30 6.70825 30ZM24.6667 9.33325C22.8249 9.33325 21.3333 7.84156 21.3333 6C21.3333 4.15844 22.8249 2.66675 24.6667 2.66675C26.5083 2.66675 28 4.15844 28 6C28 7.84156 26.5083 9.33325 24.6667 9.33325ZM24.6667 4C23.5666 4 22.6667 4.89988 22.6667 6C22.6667 7.10012 23.5666 8 24.6667 8C25.7666 8 26.6667 7.10012 26.6667 6C26.6667 4.89988 25.7666 4 24.6667 4ZM25.375 30H23.9583C23.0082 30 22.1834 29.325 22 28.3916L21.1834 24.2583L22.4917 24L23.3084 28.1333C23.3667 28.4416 23.6416 28.6667 23.9583 28.6667H25.375C25.6916 28.6667 25.9666 28.4416 26.0249 28.1333L27.6333 20H28.6667C29.0334 20 29.3333 19.7 29.3333 19.3333V14C29.3333 12.8999 28.4334 12 27.3333 12H24V10.6667H27.3333C29.1751 10.6667 30.6667 12.1584 30.6667 14V19.3333C30.6667 20.4167 29.8084 21.2917 28.7334 21.3333L27.3333 28.3916C27.1499 29.3249 26.3249 30 25.375 30ZM15.3333 8C13.125 8 11.3333 6.20825 11.3333 4C11.3333 1.79175 13.125 0 15.3333 0C17.5417 0 19.3333 1.79175 19.3333 4C19.3333 6.20825 17.5417 8 15.3333 8ZM15.3333 1.33325C13.8667 1.33325 12.6667 2.53344 12.6667 4C12.6667 5.46656 13.8667 6.66675 15.3333 6.66675C16.8001 6.66675 18 5.46656 18 4C18 2.53344 16.8 1.33325 15.3333 1.33325Z" fill="white"/>
<path d="M16.5512 32H14.1179C12.9346 32 12.0845 31.2166 12.0012 30.05L10.668 22C9.56784 22 8.66797 21.1001 8.66797 20V12.6668C8.66797 10.8249 10.1597 9.33325 12.0012 9.33325H18.668C20.5095 9.33325 22.0012 10.8249 22.0012 12.6668V20C22.0012 21.1001 21.1013 22 20.0012 22H19.9763L18.6597 30.1084C18.5762 31.2165 17.7263 32 16.5513 32H16.5512ZM12.0012 10.6668C10.9011 10.6668 10.0012 11.5666 10.0012 12.6668V20C10.0012 20.3667 10.3012 20.6668 10.668 20.6668H11.8262L13.3262 29.8916C13.3679 30.4251 13.6345 30.6668 14.1179 30.6668H16.5513C17.0347 30.6668 17.3013 30.4251 17.3345 29.9499L18.8345 20.6668H20.0012C20.3679 20.6668 20.668 20.3668 20.668 20V12.6668C20.668 11.5666 19.7678 10.6668 18.668 10.6668H12.0012Z" fill="white"/>
<path d="M15.332 17.3332H13.9988V14.6667C13.9988 14.3001 13.6988 14 13.332 14C12.9653 14 12.6655 14.3 12.6655 14.6667V17.3332H11.332V14.6667C11.332 13.5666 12.2322 12.6667 13.332 12.6667C14.4322 12.6667 15.332 13.5666 15.332 14.6667V17.3332Z" fill="white"/>
<path d="M12.668 10H14.0012V13.3333H12.668V10ZM17.3345 10H18.668V14.6667H17.3345V10Z" fill="white"/>
</svg>
