<svg width="601" height="164" viewBox="0 0 601 164" fill="none" xmlns="http://www.w3.org/2000/svg">
<path d="M38.0717 67H156.274L166.593 72.4684H600V151.456L582.176 163H38.0717M38.0717 67V163M38.0717 67H24V124.114L27.7524 125.937V147.81L24 150.241V163H38.0717" stroke="#D5A618" stroke-width="2"/>
<path fill-rule="evenodd" clip-rule="evenodd" d="M28 3.5L19.8333 11.6667L11.6667 3.5H3.5V11.6667L11.6667 19.8333L3.5 28L11.6667 36.1667L3.5 44.3333V52.5H11.6667L19.8333 44.3333L28 52.5L36.1667 44.3333L44.3333 52.5H52.5V44.3333L44.3333 36.1667L52.5 28L44.3333 19.8333L52.5 11.6667V3.5H44.3333L36.1667 11.6667L28 3.5ZM36.1667 11.6667L44.3333 19.8333L36.1667 28L44.3333 36.1667L36.1667 44.3333L28 36.1667L19.8333 44.3333L11.6667 36.1667L19.8333 28L11.6667 19.8333L19.8333 11.6667L28 19.8333L36.1667 11.6667Z" fill="#D5A618"/>
</svg>
