<svg width="24" height="24" viewBox="0 0 24 24" fill="none" xmlns="http://www.w3.org/2000/svg">
<path d="M17 1.25H7C4.93 1.25 3.25 2.93 3.25 5V19C3.25 21.07 4.93 22.75 7 22.75H17C19.07 22.75 20.75 21.07 20.75 19V5C20.75 2.93 19.07 1.25 17 1.25ZM8.75 2.75H15.25V5C15.25 5.14 15.14 5.25 15 5.25H9C8.86 5.25 8.75 5.14 8.75 5V2.75ZM19.25 19C19.25 20.24 18.24 21.25 17 21.25H7C5.76 21.25 4.75 20.24 4.75 19V5C4.75 3.76 5.76 2.75 7 2.75H7.25V5C7.25 5.96 8.04 6.75 9 6.75H15C15.96 6.75 16.75 5.96 16.75 5V2.75H17C18.24 2.75 19.25 3.76 19.25 5V19ZM16.75 14C16.75 14.41 16.41 14.75 16 14.75H14.39C13.81 14.75 13.32 14.36 13.18 13.8L12.95 12.9L11.94 16.43C11.82 16.85 11.46 17.16 11.02 17.2H10.91C10.51 17.2 10.15 16.98 9.96 16.62L9 14.75H7.99C7.58 14.75 7.24 14.41 7.24 14C7.24 13.59 7.58 13.25 7.99 13.25H9.15C9.62 13.25 10.05 13.51 10.26 13.93L10.79 14.97L11.94 10.94C12.07 10.47 12.47 10.14 12.98 10.16C13.47 10.16 13.88 10.49 14 10.97L14.57 13.25H15.98C16.39 13.25 16.73 13.59 16.73 14H16.75Z" fill="#A79376"/>
</svg>
