<svg width="193" height="56" viewBox="0 0 193 56" fill="none" xmlns="http://www.w3.org/2000/svg">
<g clip-path="url(#clip0_1294_8693)">
<path opacity="0.94" fill-rule="evenodd" clip-rule="evenodd" d="M10.5274 -0.0351562C10.7685 -0.0351562 11.0098 -0.0351562 11.2509 -0.0351562C11.7269 0.0252657 12.2092 0.109674 12.6979 0.218069C13.7279 0.600476 14.7649 0.962227 15.809 1.30332C17.1605 1.63623 18.5111 1.63623 19.8606 1.30332C20.9795 0.874076 22.113 0.48821 23.261 0.145719C25.5682 -0.10953 27.6422 0.469271 29.4831 1.88212C30.027 2.28431 30.4008 2.80282 30.6046 3.43765C30.7341 4.39502 30.3362 5.03411 29.4108 5.35493C28.1408 5.738 26.9109 6.22034 25.7209 6.80193C22.9017 8.56308 21.1532 11.0833 20.4755 14.3625C20.3482 15.9515 20.71 17.4226 21.5608 18.7759C22.0391 19.5194 22.5456 20.2429 23.0801 20.9464C24.8503 22.9331 26.5385 24.983 28.1447 27.0962C30.3058 22.6913 31.1982 18.0368 30.8216 13.1326C30.7246 11.6817 30.5196 10.2468 30.2066 8.82774C30.2359 8.75937 30.2842 8.71111 30.3513 8.68304C30.6309 8.63196 30.9082 8.57169 31.1834 8.50216C31.2195 8.52626 31.2557 8.55042 31.2919 8.57451C32.7998 15.4188 32.004 21.9785 28.9043 28.2538C31.0887 31.8355 31.6072 35.6459 30.4599 39.6851C29.6677 42.2579 28.5101 44.6455 26.9871 46.8478C25.4927 48.9421 23.8769 50.9438 22.1396 52.8528C21.1 53.8803 20.0751 54.9173 19.0647 55.9639C19.0406 55.9639 19.0165 55.9639 18.9924 55.9639C19.2998 49.0119 20.8553 42.3557 23.6589 35.9952C24.9058 33.412 26.196 30.8555 27.5297 28.3261C26.9389 27.3609 26.2757 26.4445 25.5401 25.5768C24.283 24.1511 23.053 22.7041 21.8502 21.2358C21.0017 20.1207 20.3023 18.9149 19.752 17.6183C19.0689 15.6289 19.1654 13.6755 20.0414 11.7579C21.7381 7.8385 24.6682 5.36657 28.832 4.34203C29.1464 4.24651 29.3876 4.06564 29.5555 3.7994C29.2839 3.22634 28.8739 2.78018 28.3255 2.46092C27.1354 1.6904 25.8331 1.24423 24.4186 1.12245C24.1542 1.16455 23.8889 1.20072 23.6228 1.23097C22.282 1.69398 20.9314 2.12808 19.5712 2.53327C17.767 2.80482 16.0065 2.636 14.2896 2.02682C11.5456 0.691027 8.89271 0.859844 6.33108 2.53327C5.71312 2.9269 5.13432 3.37305 4.59468 3.87175C4.29182 3.62921 4.02654 3.35187 3.79883 3.03973C5.68475 1.22848 7.92764 0.20352 10.5274 -0.0351562ZM28.2532 29.5561C29.7446 32.0888 30.2391 34.814 29.7364 37.7316C29.3081 39.9327 28.5364 42.0067 27.4212 43.9537C25.469 47.2579 23.1297 50.2725 20.4032 52.9975C20.9488 46.7394 22.5887 40.7826 25.323 35.127C26.2638 33.2453 27.2405 31.3883 28.2532 29.5561Z" fill="#B19E7F"/>
<path opacity="0.936" fill-rule="evenodd" clip-rule="evenodd" d="M93.5847 0.397906C94.1504 0.361035 94.4398 0.626319 94.4529 1.19376C94.416 1.51169 94.3552 1.8252 94.272 2.13431C92.6 6.15356 91.0083 10.2052 89.4969 14.2891C87.5398 19.777 86.0928 25.3962 85.1559 31.1467C84.9895 32.2993 84.941 33.4569 85.0112 34.6195C85.0481 34.7916 85.0965 34.9605 85.1559 35.126C85.3693 35.3037 85.5617 35.4966 85.7347 35.7048C85.8482 36.1307 85.6912 36.3719 85.2644 36.4283C84.7348 36.3451 84.3607 36.0557 84.143 35.5601C84.012 35.2354 83.9397 34.8978 83.9259 34.5472C83.855 32.8939 83.9751 31.254 84.2877 29.6274C85.5335 22.8272 87.4385 16.2192 90.0033 9.80343C90.9677 7.43997 91.9329 5.07655 92.8973 2.71311C92.969 2.57222 92.9928 2.42752 92.9697 2.27901C91.4901 3.83074 90.0909 5.44656 88.7734 7.12647C86.4227 10.2359 84.1075 13.3711 81.8278 16.532C81.0283 17.5972 80.1478 18.598 79.187 19.5345C78.7008 20.0101 78.122 20.1789 77.4506 20.041C77.0317 19.8186 76.8023 19.4689 76.7632 18.9919C76.6742 17.9762 76.7582 16.9754 77.0165 15.9894C74.4176 20.0499 71.7531 24.1377 69.0218 28.2527C68.7275 28.7167 68.4621 29.199 68.2259 29.6997C67.9948 30.0498 67.6934 30.1343 67.3215 29.953C67.2082 29.8311 67.1359 29.6864 67.1045 29.5189C67.3283 29.0109 67.5816 28.5165 67.8642 28.0357C69.8597 25.0334 71.8373 22.0189 73.7969 18.9919C75.4508 16.347 77.0186 13.6459 78.4996 10.8887C79.1074 9.02205 79.8548 7.2133 80.7425 5.46242C80.9588 5.12588 81.2598 5.01736 81.6469 5.13684C81.8914 5.3635 81.9753 5.64084 81.9001 5.96887C81.7163 6.66452 81.4754 7.33976 81.1766 7.99467C80.6173 9.18527 80.0385 10.367 79.4402 11.5398C78.6494 13.6933 78.0829 15.8999 77.74 18.1599C77.7971 18.3824 77.8333 18.6115 77.8485 18.8472C77.9013 18.9672 77.9852 19.0033 78.1017 18.9557C78.9323 18.2456 79.692 17.4618 80.3807 16.6043C82.5274 13.6862 84.6733 10.7681 86.8199 7.84997C88.6012 5.53184 90.4946 3.30104 92.4994 1.15758C92.8431 0.866286 93.2048 0.61306 93.5847 0.397906Z" fill="#B19E7F"/>
<path opacity="0.939" fill-rule="evenodd" clip-rule="evenodd" d="M135.403 0.614902C136.082 0.545502 136.42 0.859019 136.416 1.55545C136.392 1.72669 136.355 1.89551 136.308 2.06191C134.495 6.09825 132.903 10.2222 131.532 14.4338C131.258 15.269 131.041 16.113 130.881 16.966C132.944 12.6129 135.802 8.86268 139.455 5.71559C141.036 4.42752 142.797 3.43874 144.736 2.74923C146.227 2.25499 147.722 2.23087 149.222 2.67688C151.005 3.4971 151.921 4.89587 151.971 6.87319C151.802 8.57429 151.236 10.1298 150.271 11.5398C147.733 15.0915 144.561 17.9253 140.757 20.0409C138.831 21.0968 136.781 21.7841 134.607 22.1029C136.13 23.4696 137.746 24.7116 139.455 25.8289C142.221 27.4504 144.874 27.2817 147.413 25.3225C149.443 23.5584 151.3 21.6291 152.984 19.5345C153.443 19.358 153.756 19.5027 153.925 19.9686C153.879 20.131 153.819 20.2878 153.744 20.4388C152.199 22.3706 150.498 24.1673 148.643 25.8289C147.269 26.9617 145.702 27.6852 143.941 27.9994C142.584 28.1091 141.282 27.8921 140.034 27.3483C139.202 26.9449 138.406 26.4867 137.646 25.9736C136.061 24.7744 134.517 23.5203 133.016 22.2114C132.031 22.1198 131.067 21.9509 130.122 21.705C129.864 22.3812 129.635 23.0686 129.434 23.767C128.795 27.0134 128.301 30.2812 127.951 33.5704C127.964 33.8495 127.988 34.1269 128.024 34.4024C128.538 34.4908 128.695 34.7802 128.494 35.2706C128.147 35.6639 127.749 35.7243 127.3 35.4515C127.144 35.2729 127.036 35.0679 126.974 34.8365C126.836 33.8483 126.836 32.8596 126.974 31.8702C127.319 29.7306 127.608 27.5843 127.843 25.431C128.263 23.9572 128.552 22.4619 128.711 20.9453C128.306 20.6859 127.945 20.3723 127.626 20.0047C127.332 20.4439 126.982 20.8418 126.577 21.1985C124.346 23.2368 122.031 25.1662 119.631 26.9865C118.398 27.8686 117.096 28.6403 115.724 29.3017C113.436 29.9927 112.278 29.1365 112.251 26.7333C112.481 24.0305 113.216 21.4741 114.458 19.0642C115.975 15.9556 117.615 12.941 119.378 10.0204C116.288 13.9066 113.224 17.8135 110.189 21.7412C108.165 24.2728 105.958 26.6483 103.569 28.8676C102.42 29.8719 101.19 30.7643 99.8793 31.5446C98.7615 32.2025 97.5561 32.5763 96.2618 32.666C94.5442 32.5275 93.375 31.6593 92.7528 30.0614C92.1096 26.8514 92.4475 23.7403 93.7657 20.7283C95.4869 17.0812 97.9107 13.9822 101.037 11.4313C106.015 7.6668 111.562 6.46095 117.677 7.81374C118.207 7.96387 118.725 8.14475 119.233 8.35637C120.108 7.33587 120.988 6.31091 121.874 5.28149C122.233 5.03248 122.583 5.04454 122.923 5.31766C123.059 5.71 123.035 6.09587 122.85 6.47527C122.372 7.46791 121.83 8.42054 121.223 9.3331C122.031 9.99706 122.743 10.7567 123.357 11.6121C123.744 12.2414 124.01 12.9166 124.153 13.6379C124.206 14.1479 124.182 14.6543 124.08 15.1573C123.717 15.4669 123.379 15.4428 123.068 15.0849C123.195 14.1611 123.026 13.2929 122.561 12.4803C122.06 11.6292 121.396 10.9298 120.571 10.3822C118.279 13.9787 116.264 17.7409 114.53 21.6688C113.894 23.3242 113.496 25.0365 113.336 26.8057C113.326 27.3887 113.495 27.9071 113.843 28.3612C114.25 28.4976 114.66 28.4976 115.073 28.3612C116.331 27.8406 117.513 27.1895 118.618 26.4077C121.47 24.2798 124.195 21.9888 126.794 19.5345C126.914 19.5104 127.034 19.4862 127.155 19.4621C126.747 19.0075 126.613 18.4889 126.757 17.9066C127.035 17.5808 127.385 17.4723 127.806 17.581C128.306 17.687 128.788 17.8438 129.253 18.0513C130.688 12.9874 132.449 8.03145 134.535 3.18333C134.357 2.79162 134.345 2.3937 134.499 1.98956C134.731 1.47436 135.033 1.01614 135.403 0.614902ZM146.618 3.43656C148.046 3.24935 149.24 3.68345 150.199 4.73886C150.843 5.77694 150.987 6.88631 150.633 8.06697C150.129 9.58061 149.382 10.9553 148.39 12.1909C145.859 15.2052 142.856 17.6289 139.382 19.4621C137.51 20.3884 135.533 20.931 133.45 21.09C132.642 20.4865 131.87 19.8475 131.135 19.1727C133.223 14.1923 136.31 9.94771 140.395 6.43909C142.236 4.95187 144.31 3.95102 146.618 3.43656ZM111.672 8.35637C113.948 8.20248 116.167 8.4798 118.329 9.1884C118.493 9.26661 118.504 9.37513 118.365 9.51397C115.181 13.5656 111.998 17.6172 108.815 21.6688C107.1 23.7213 105.28 25.6868 103.352 27.5653C102.139 28.6179 100.86 29.5826 99.5175 30.4593C98.7239 30.9248 97.8795 31.2625 96.9853 31.4722C94.9653 31.6481 93.8193 30.7197 93.5487 28.6868C93.3902 25.22 94.1861 21.9884 95.9362 18.9918C97.9222 15.5614 100.611 12.8241 104.003 10.7801C106.405 9.45269 108.962 8.64476 111.672 8.35637ZM128.024 18.7748C128.41 18.8593 128.772 19.004 129.109 19.2089C129.068 19.3792 129.02 19.548 128.964 19.7153C128.577 19.4726 128.263 19.1591 128.024 18.7748ZM130.628 20.2941C131.735 20.9081 131.687 21.0166 130.483 20.6197C130.562 20.5235 130.61 20.415 130.628 20.2941Z" fill="#B19E7F"/>
<path opacity="0.935" fill-rule="evenodd" clip-rule="evenodd" d="M61.3894 3.51172C63.9949 3.57306 65.1404 4.89948 64.8261 7.49098C64.4801 9.15568 63.8772 10.7233 63.0173 12.1937C62.3873 13.4404 61.5553 14.5377 60.5212 15.4857C59.9031 15.726 59.6257 15.5211 59.6892 14.8707C61.5926 12.874 62.919 10.5347 63.6684 7.85273C63.9686 6.99568 63.8962 6.17571 63.4514 5.39282C62.9422 4.8249 62.3031 4.55961 61.5341 4.59697C59.8403 4.79579 58.2244 5.26607 56.6867 6.0078C52.1447 8.06761 48.1535 10.9013 44.7127 14.5089C44.123 15.2064 43.5683 15.9299 43.0487 16.6795C41.8248 18.6286 42.271 20.0153 44.3871 20.8396C44.8409 20.9989 45.2991 21.1436 45.7618 21.2737C47.8144 21.7446 49.8643 22.227 51.9115 22.7207C52.9464 23.0174 53.9713 23.343 54.9864 23.6974C58.0655 22.1806 61.261 20.9627 64.5728 20.0437C65.5157 19.7925 66.4683 19.5875 67.4307 19.4288C67.9456 19.4807 68.1144 19.746 67.9371 20.2246C67.8417 20.3684 67.7091 20.4528 67.5392 20.4778C63.6187 21.2379 59.8806 22.5162 56.3249 24.3124C57.8272 24.9709 59.0451 25.9717 59.9786 27.3149C60.6384 28.6863 60.5902 30.0368 59.8339 31.3665C58.8917 32.7913 57.6737 33.9127 56.1802 34.7308C52.6552 36.6734 48.893 37.4934 44.8936 37.1907C43.4847 36.868 42.8215 35.9878 42.9039 34.5499C43.1515 33.5485 43.6097 32.6562 44.2786 31.873C45.4053 30.505 46.6714 29.2871 48.077 28.2193C49.9203 26.8753 51.8254 25.6213 53.7926 24.4571C53.1942 24.2496 52.5913 24.0566 51.9839 23.8783C49.5981 23.2902 47.2106 22.7114 44.8212 22.1419C43.5808 21.8662 42.5558 21.2512 41.7463 20.297C41.3356 19.4676 41.2392 18.5994 41.4569 17.6924C41.6138 17.1614 41.8309 16.655 42.1081 16.173C43.1877 14.6097 44.4297 13.1747 45.8341 11.8682C49.6884 8.38175 54.0777 5.75305 59.0019 3.98199C59.793 3.74594 60.5889 3.58918 61.3894 3.51172ZM55.0226 24.9274C56.549 25.5154 57.8392 26.4317 58.8933 27.6767C59.1882 28.1271 59.3691 28.6216 59.436 29.1599C59.3101 30.0688 58.9605 30.8767 58.3869 31.5836C56.6493 33.3879 54.5632 34.6299 52.1286 35.3096C50.3039 35.8891 48.4348 36.2146 46.5215 36.2863C45.6636 36.3494 44.8919 36.1324 44.2063 35.6352C43.9684 35.3109 43.8961 34.9492 43.9892 34.5499C44.298 33.6872 44.7562 32.9154 45.3639 32.2347C46.7682 30.6367 48.3479 29.2499 50.1028 28.0746C51.7352 27.0057 53.375 25.9566 55.0226 24.9274Z" fill="#B19E7F"/>
<path opacity="0.94" fill-rule="evenodd" clip-rule="evenodd" d="M9.07999 55.9609C9.0559 55.9609 9.03173 55.9609 9.00764 55.9609C2.68547 50.5621 0.285858 43.737 1.8088 35.4858C2.11532 32.4097 2.71823 29.3951 3.61755 26.442C3.95587 26.5779 4.30556 26.6743 4.66663 26.7314C3.20804 31.8404 2.54483 37.0496 2.677 42.359C3.06806 46.2023 4.53918 49.5545 7.09036 52.4157C5.91168 45.8438 7.3828 39.9593 11.5037 34.7623C12.6919 33.4297 13.8253 32.0551 14.9042 30.6383C15.0489 30.3489 15.1936 30.0595 15.3383 29.7701C15.6458 28.5169 15.1756 27.7089 13.9274 27.3464C12.4588 26.9996 10.9876 26.6619 9.51409 26.3335C6.3659 25.4538 3.96629 23.6088 2.31525 20.7987C0.89008 18.2002 0.106284 15.4268 -0.0361328 12.4784C-0.0361328 11.9479 -0.0361328 11.4173 -0.0361328 10.8867C0.0278755 9.44593 0.329335 8.04711 0.868244 6.6904C1.2439 5.83241 1.85888 5.21744 2.71317 4.84547C3.09904 4.79724 3.48491 4.79724 3.87078 4.84547C4.63865 5.07733 5.41039 5.29438 6.18598 5.49662C7.87051 5.72074 9.43805 5.38311 10.8887 4.48372C13.4569 3.50092 15.9891 3.59738 18.4855 4.77312C16.8099 7.07631 15.7849 9.64475 15.4106 12.4784C15.1725 14.6156 15.5824 16.6173 16.6406 18.4835C20.7425 24.2792 22.1895 30.6943 20.9816 37.7286C19.6081 44.9181 15.7012 50.2238 9.26086 53.6457C9.78822 49.4103 10.8493 45.3104 12.4443 41.3461C13.008 39.9281 13.7556 38.6258 14.6871 37.4392C16.2183 36.0078 18.0391 35.2602 20.1496 35.1964C20.5627 30.5455 19.6824 26.1562 17.5088 22.0286C16.6583 20.7382 15.8625 19.4118 15.1212 18.0494C14.1263 15.5514 13.9574 12.9951 14.6148 10.3803C15.0588 8.58974 15.7703 6.91362 16.7491 5.35192C15.1651 4.85265 13.5734 4.82853 11.974 5.27957C11.0742 5.70535 10.1578 6.09122 9.22469 6.43718C8.24861 6.67111 7.2598 6.74346 6.25833 6.65423C5.26025 6.43811 4.27146 6.18488 3.29197 5.89455C2.78992 5.97392 2.41611 6.2392 2.17055 6.6904C1.39103 8.26054 1.04134 9.9246 1.12147 11.6826C1.10856 14.9354 1.94059 17.95 3.61755 20.7263C5.00965 22.8649 6.92693 24.3239 9.36939 25.1035C10.7312 25.4724 12.1058 25.7859 13.4933 26.0441C16.3246 26.6524 17.1807 28.2803 16.0618 30.9277C15.6557 31.5508 15.2216 32.1538 14.7595 32.7365C13.2711 34.3448 11.9205 36.0571 10.7079 37.8733C8.16418 42.1856 7.32014 46.816 8.17561 51.7646C8.41719 53.1776 8.71867 54.5763 9.07999 55.9609ZM19.8602 36.2816C19.9363 36.2708 20.0086 36.2828 20.0772 36.3178C19.2093 42.7485 16.1103 47.7768 10.7802 51.4028C11.3355 48.0728 12.252 44.8412 13.5295 41.7079C14.003 40.5433 14.6059 39.4581 15.3383 38.4521C16.5909 37.1927 18.0982 36.4692 19.8602 36.2816Z" fill="#B19E7F"/>
<path opacity="0.941" fill-rule="evenodd" clip-rule="evenodd" d="M188.364 3.87109C189.256 3.9135 190.148 3.94967 191.041 3.97962C191.413 3.99905 191.775 4.0714 192.126 4.19667C192.548 4.53189 192.596 4.91776 192.271 5.35427C192.172 5.41757 192.063 5.45375 191.945 5.4628C191.667 5.32907 191.39 5.19643 191.113 5.06487C185.452 4.88011 179.833 5.27804 174.256 6.25865C169.164 14.5796 165.57 23.4908 163.475 32.992C163.162 33.0753 162.885 33.015 162.643 32.8112C162.595 32.4735 162.595 32.1359 162.643 31.7983C164.577 23.3058 167.725 15.299 172.085 7.778C171.783 7.38666 171.807 7.01284 172.157 6.65658C167.33 7.41741 162.651 8.71971 158.122 10.5635C156.674 11.1599 155.408 12.0161 154.323 13.1319C153.929 13.6221 153.905 14.1285 154.251 14.6513C154.933 15.4207 155.765 15.9633 156.747 16.2791C157.852 16.6523 158.985 16.8934 160.147 17.0027C160.643 17.1377 160.775 17.4391 160.545 17.907C158.278 18.0483 156.191 17.4816 154.287 16.2068C153.757 15.774 153.336 15.2555 153.021 14.6513C152.788 13.8307 152.933 13.0831 153.455 12.4084C154.708 11.1358 156.167 10.159 157.832 9.47823C160.795 8.28163 163.834 7.31692 166.948 6.58423C169.033 6.08532 171.131 5.65122 173.243 5.28192C173.584 4.9741 173.958 4.91381 174.364 5.10105C179.012 4.34852 183.679 3.93853 188.364 3.87109Z" fill="#B19E7F"/>
<path opacity="0.907" fill-rule="evenodd" clip-rule="evenodd" d="M110.804 43.3717C111.432 43.3597 112.059 43.3717 112.685 43.4079C113.111 43.4279 113.52 43.5003 113.915 43.6249C113.87 43.8513 113.821 44.0804 113.771 44.3122C112.769 44.0363 111.756 43.976 110.732 44.1314C109.961 44.563 109.731 45.2021 110.045 46.0486C110.101 46.1779 110.186 46.2864 110.298 46.3742C111.228 46.6732 112.169 46.9385 113.119 47.1701C113.768 47.5256 114.082 48.0803 114.06 48.8341C113.999 50.5354 113.118 51.3192 111.419 51.1855C110.682 51.1558 109.947 51.1076 109.213 51.0408C109.23 50.7938 109.278 50.5527 109.357 50.3173C110.265 50.4972 111.181 50.5576 112.107 50.4982C112.691 50.3716 113.065 50.0219 113.228 49.4491C113.276 49.0874 113.276 48.7256 113.228 48.3639C113.122 48.1859 112.99 48.0291 112.83 47.8936C111.941 47.6434 111.049 47.4022 110.153 47.1701C109.432 46.802 109.118 46.2111 109.213 45.3975C109.178 44.2751 109.708 43.5998 110.804 43.3717Z" fill="#B19E7F"/>
<path opacity="0.907" fill-rule="evenodd" clip-rule="evenodd" d="M129.616 43.3717C130.243 43.3597 130.87 43.3717 131.497 43.4079C131.922 43.4279 132.332 43.5003 132.727 43.6249C132.681 43.8513 132.633 44.0804 132.582 44.3122C131.581 44.0363 130.568 43.976 129.543 44.1314C128.772 44.563 128.543 45.2021 128.856 46.0486C128.913 46.1779 128.997 46.2864 129.109 46.3742C130.04 46.6732 130.98 46.9385 131.931 47.1701C132.579 47.5256 132.893 48.0803 132.872 48.8341C132.81 50.5354 131.93 51.3192 130.231 51.1855C129.494 51.1558 128.758 51.1076 128.024 51.0408C128.041 50.7938 128.089 50.5527 128.169 50.3173C129.076 50.4972 129.993 50.5576 130.918 50.4982C131.503 50.3716 131.877 50.0219 132.04 49.4491C132.088 49.0874 132.088 48.7256 132.04 48.3639C131.934 48.1859 131.801 48.0291 131.642 47.8936C130.752 47.6434 129.86 47.4022 128.965 47.1701C128.244 46.802 127.93 46.2111 128.024 45.3975C127.989 44.2751 128.52 43.5998 129.616 43.3717Z" fill="#B19E7F"/>
<path opacity="0.912" fill-rule="evenodd" clip-rule="evenodd" d="M43.5186 43.4459C44.7005 43.4339 45.8822 43.4459 47.0637 43.4821C48.089 43.7073 48.6799 44.3463 48.8363 45.3994C49.1091 46.7622 49.0609 48.1127 48.6916 49.451C48.374 50.2994 47.7832 50.842 46.919 51.0789C45.7858 51.1151 44.6523 51.1271 43.5186 51.1151C43.5186 48.5587 43.5186 46.0023 43.5186 43.4459ZM44.2421 44.0971C46.9567 43.4147 48.3073 44.4518 48.2937 47.2081C48.3335 49.9881 46.983 51.0733 44.2421 50.4639C44.2421 48.3417 44.2421 46.2193 44.2421 44.0971Z" fill="#B19E7F"/>
<path opacity="0.913" fill-rule="evenodd" clip-rule="evenodd" d="M54.3711 43.4453C55.9145 43.4453 57.4581 43.4453 59.0015 43.4453C59.0015 43.6624 59.0015 43.8794 59.0015 44.0965C57.6992 44.0965 56.3969 44.0965 55.0946 44.0965C55.0946 45.0129 55.0946 45.9293 55.0946 46.8458C56.1798 46.8458 57.2651 46.8458 58.3504 46.8458C58.3504 47.0628 58.3504 47.2799 58.3504 47.4969C57.2651 47.4969 56.1798 47.4969 55.0946 47.4969C55.0946 48.4857 55.0946 49.4745 55.0946 50.4633C56.3969 50.4633 57.6992 50.4633 59.0015 50.4633C59.0015 50.6803 59.0015 50.8974 59.0015 51.1144C57.4581 51.1144 55.9145 51.1144 54.3711 51.1144C54.3711 48.5581 54.3711 46.0017 54.3711 43.4453Z" fill="#B19E7F"/>
<path opacity="0.904" fill-rule="evenodd" clip-rule="evenodd" d="M64.1387 43.4495C64.5914 43.4271 65.0376 43.4512 65.4772 43.5219C66.587 45.8396 67.6964 48.1548 68.8053 50.4675C68.8414 48.1282 68.8535 45.7889 68.8414 43.4495C69.0826 43.4495 69.3238 43.4495 69.5649 43.4495C69.5649 46.0059 69.5649 48.5623 69.5649 51.1186C69.1282 51.1424 68.6941 51.1183 68.2626 51.0463C67.1215 48.7399 66.0001 46.4247 64.8983 44.1007C64.8622 46.4399 64.8501 48.7792 64.8622 51.1186C64.621 51.1186 64.3798 51.1186 64.1387 51.1186C64.1387 48.5623 64.1387 46.0059 64.1387 43.4495Z" fill="#B19E7F"/>
<path opacity="0.934" fill-rule="evenodd" clip-rule="evenodd" d="M74.3398 43.4453C76.1725 43.4453 78.0058 43.4453 79.8385 43.4453C79.8385 43.6624 79.8385 43.8794 79.8385 44.0965C79.0426 44.0965 78.2468 44.0965 77.4509 44.0965C77.4509 46.4358 77.4509 48.7751 77.4509 51.1144C77.21 51.1144 76.9683 51.1144 76.7274 51.1144C76.7274 48.7751 76.7274 46.4358 76.7274 44.0965C75.9315 44.0965 75.1357 44.0965 74.3398 44.0965C74.3398 43.8794 74.3398 43.6624 74.3398 43.4453Z" fill="#B19E7F"/>
<path opacity="0.915" fill-rule="evenodd" clip-rule="evenodd" d="M85.6266 43.4453C86.157 43.4453 86.688 43.4453 87.2183 43.4453C87.9418 46.0017 88.6654 48.5581 89.3889 51.1144C89.1479 51.1144 88.9063 51.1144 88.6654 51.1144C88.4722 50.3909 88.2797 49.6674 88.0865 48.9439C86.976 48.9198 85.8668 48.944 84.7584 49.0163C84.5313 49.7075 84.3388 50.4069 84.1796 51.1144C83.9134 51.1264 83.6479 51.1144 83.3838 51.0783C84.1681 48.5453 84.9154 46.001 85.6266 43.4453ZM86.2054 44.0965C86.3921 44.0663 86.5491 44.1146 86.6757 44.2412C87.0628 45.5713 87.4607 46.8977 87.8695 48.2204C86.9051 48.3169 85.9399 48.3169 84.9755 48.2204C85.4002 46.8492 85.8104 45.4745 86.2054 44.0965Z" fill="#B19E7F"/>
<path opacity="0.902" fill-rule="evenodd" clip-rule="evenodd" d="M94.3086 43.4453C94.5495 43.4453 94.7912 43.4453 95.0321 43.4453C95.0321 45.7846 95.0321 48.124 95.0321 50.4633C96.2136 50.4633 97.3958 50.4633 98.5773 50.4633C98.5773 50.6803 98.5773 50.8974 98.5773 51.1144C97.1541 51.1144 95.7317 51.1144 94.3086 51.1144C94.3086 48.5581 94.3086 46.0017 94.3086 43.4453Z" fill="#B19E7F"/>
<path opacity="0.909" fill-rule="evenodd" clip-rule="evenodd" d="M118.184 43.5176C118.478 43.422 118.779 43.422 119.088 43.5176C119.721 44.711 120.372 45.8927 121.041 47.0628C121.68 45.8811 122.32 44.6993 122.959 43.5176C123.248 43.4212 123.538 43.4212 123.827 43.5176C123.019 44.9887 122.211 46.4599 121.403 47.931C121.367 48.9919 121.355 50.053 121.367 51.1144C121.126 51.1144 120.884 51.1144 120.643 51.1144C120.656 50.0048 120.643 48.8954 120.607 47.7863C119.798 46.3589 118.99 44.936 118.184 43.5176Z" fill="#B19E7F"/>
<path opacity="0.934" fill-rule="evenodd" clip-rule="evenodd" d="M137.212 43.4453C139.045 43.4453 140.878 43.4453 142.711 43.4453C142.711 43.6624 142.711 43.8794 142.711 44.0965C141.915 44.0965 141.119 44.0965 140.323 44.0965C140.323 46.4358 140.323 48.7751 140.323 51.1144C140.082 51.1144 139.84 51.1144 139.599 51.1144C139.599 48.7751 139.599 46.4358 139.599 44.0965C138.804 44.0965 138.008 44.0965 137.212 44.0965C137.212 43.8794 137.212 43.6624 137.212 43.4453Z" fill="#B19E7F"/>
<path opacity="0.913" fill-rule="evenodd" clip-rule="evenodd" d="M147.559 43.4453C149.102 43.4453 150.646 43.4453 152.189 43.4453C152.189 43.6624 152.189 43.8794 152.189 44.0965C150.887 44.0965 149.584 44.0965 148.282 44.0965C148.282 45.0129 148.282 45.9293 148.282 46.8458C149.367 46.8458 150.453 46.8458 151.538 46.8458C151.538 47.0628 151.538 47.2799 151.538 47.4969C150.453 47.4969 149.367 47.4969 148.282 47.4969C148.282 48.4857 148.282 49.4745 148.282 50.4633C149.584 50.4633 150.887 50.4633 152.189 50.4633C152.189 50.6803 152.189 50.8974 152.189 51.1144C150.646 51.1144 149.102 51.1144 147.559 51.1144C147.559 48.5581 147.559 46.0017 147.559 43.4453Z" fill="#B19E7F"/>
<path opacity="0.913" fill-rule="evenodd" clip-rule="evenodd" d="M157.325 43.4464C157.738 43.4226 158.148 43.4467 158.555 43.5187C159.359 45.6331 160.143 47.7554 160.907 49.8855C161.697 47.766 162.482 45.6438 163.258 43.5187C163.665 43.4467 164.075 43.4226 164.488 43.4464C164.488 46.0027 164.488 48.5591 164.488 51.1155C164.247 51.1155 164.005 51.1155 163.764 51.1155C163.777 48.8966 163.764 46.6779 163.728 44.4593C162.929 46.5987 162.122 48.733 161.304 50.8623C161.021 50.9196 160.743 50.9075 160.472 50.8261C159.677 48.6797 158.881 46.5333 158.085 44.3869C158.049 46.6296 158.036 48.8725 158.049 51.1155C157.808 51.1155 157.566 51.1155 157.325 51.1155C157.325 48.5591 157.325 46.0027 157.325 43.4464Z" fill="#B19E7F"/>
</g>
<defs>
<clipPath id="clip0_1294_8693">
<rect width="192.596" height="55.999" fill="white"/>
</clipPath>
</defs>
</svg>
