<svg width="24" height="24" viewBox="0 0 24 24" fill="none" xmlns="http://www.w3.org/2000/svg">
<g clip-path="url(#clip0_1642_8090)">
<path d="M3.81094 5.9125H4.81406V6.91562C4.81406 7.28125 5.10938 7.57656 5.475 7.57656C5.84063 7.57656 6.13594 7.28125 6.13594 6.91562V5.9125H7.13906C7.50469 5.9125 7.8 5.61719 7.8 5.25156C7.8 4.88594 7.50469 4.59063 7.13906 4.59063H6.14063V3.58281C6.14063 3.21719 5.84531 2.92188 5.47969 2.92188C5.11406 2.92188 4.81875 3.21719 4.81875 3.58281V4.58594H3.81094C3.44531 4.58594 3.15 4.88125 3.15 5.24688C3.15 5.6125 3.44531 5.9125 3.81094 5.9125ZM3.73125 11.2234H13.1906C13.5563 11.2234 13.8516 10.9281 13.8516 10.5625C13.8516 10.1969 13.5563 9.90156 13.1906 9.90156H3.73125C3.36562 9.90156 3.07031 10.1969 3.07031 10.5625C3.07031 10.9281 3.36562 11.2234 3.73125 11.2234ZM3.73125 15.6672H9.62813C9.99375 15.6672 10.2891 15.3719 10.2891 15.0063C10.2891 14.6406 9.99375 14.3453 9.62813 14.3453H3.73125C3.36562 14.3453 3.07031 14.6406 3.07031 15.0063C3.07031 15.3719 3.36562 15.6672 3.73125 15.6672ZM14.0391 18.7844H3.73125C3.36562 18.7844 3.07031 19.0797 3.07031 19.4453C3.07031 19.8109 3.36562 20.1063 3.73125 20.1063H14.0391C14.4047 20.1063 14.7 19.8109 14.7 19.4453C14.7 19.0797 14.4047 18.7844 14.0391 18.7844ZM9.30469 6.78437H14.0391C14.4047 6.78437 14.7 6.48906 14.7 6.12344C14.7 5.75781 14.4047 5.4625 14.0391 5.4625H9.30469C8.93906 5.4625 8.64375 5.75781 8.64375 6.12344C8.64375 6.48906 8.93906 6.78437 9.30469 6.78437Z" fill="#A79376"/>
<path d="M23.2781 5.925C22.3969 4.95937 20.9859 5.0625 20.1609 5.8875L17.6719 8.32031V2.08125C17.6719 0.984375 16.7859 0.09375 15.6891 0.09375H2.07656C0.984375 0.09375 0.09375 0.984375 0.09375 2.08125V21.9234C0.09375 23.0156 0.984375 23.9062 2.07656 23.9062H15.6891C16.7812 23.9062 17.6719 23.0156 17.6719 21.9188V14.4844L23.2406 9.04219C24.1125 8.19375 24.1266 6.79219 23.2781 5.925ZM16.35 21.9188C16.35 22.2844 16.0547 22.5797 15.6891 22.5797H2.07656C1.71094 22.5797 1.41563 22.2844 1.41563 21.9188V2.08125C1.41563 1.71563 1.71094 1.42031 2.07656 1.42031H15.6891C16.0547 1.42031 16.35 1.71563 16.35 2.08125V9.61406L11.7422 14.1188C11.6156 14.2406 11.5453 14.4094 11.5406 14.5828L11.5125 16.7672C11.5078 17.1328 11.8031 17.4328 12.1641 17.4375L14.3438 17.4609H14.3531C14.5266 17.4609 14.6906 17.3953 14.8172 17.2734L16.3453 15.7781V21.9188H16.35ZM14.0906 16.1344L12.8438 16.1203L12.8578 14.8734L19.8047 8.08594L21.0375 9.34687L14.0906 16.1344ZM22.3172 8.09531L21.9844 8.41875L20.7516 7.15781L21.0844 6.82969C21.4219 6.50156 21.9984 6.50625 22.3312 6.84375C22.6734 7.19531 22.6641 7.75312 22.3172 8.09531Z" fill="#A79376"/>
</g>
<defs>
<clipPath id="clip0_1642_8090">
<rect width="24" height="24" fill="white"/>
</clipPath>
</defs>
</svg>
