<svg width="302" height="529" viewBox="0 0 302 529" fill="none" xmlns="http://www.w3.org/2000/svg">
<path d="M0 134C0 125.163 7.16344 118 16 118H286C294.837 118 302 125.163 302 134V513C302 521.837 294.837 529 286 529H16C7.16344 529 0 521.837 0 513V134Z" fill="white"/>
<path d="M134.968 6.9282C142.393 2.64102 151.542 2.64102 158.968 6.9282L195.59 28.0718C203.015 32.359 207.59 40.282 207.59 48.8564V91.1436C207.59 99.718 203.015 107.641 195.59 111.928L158.968 133.072C151.542 137.359 142.393 137.359 134.968 133.072L98.346 111.928C90.9204 107.641 86.346 99.718 86.346 91.1436V48.8564C86.346 40.282 90.9204 32.359 98.346 28.0718L134.968 6.9282Z" fill="#8E7E66"/>
</svg>
