<svg width="1440" height="881" viewBox="0 0 1440 881" fill="none" xmlns="http://www.w3.org/2000/svg">
<g clip-path="url(#clip0_1429_4617)">
<path d="M430.4 43.0804C930.513 -74.484 1317.42 79.6642 1444.74 147.369L1508.07 242.365L1564.16 473.82L1685.51 594.533L1920 735.19C1910.81 820.04 1802.9 956.988 1444.74 825.988C997.035 662.238 704.045 719.97 314.359 801.845C2.61072 867.345 -299.984 803.245 -412.313 763.007L-458.243 735.19L-480 704.75L-458.243 46.0743C-367.994 110.105 -69.7129 160.645 430.4 43.0804Z" fill="#E7E1D7"/>
<g clip-path="url(#clip1_1429_4617)">
<path d="M101.875 784.063C101.875 781.742 100.953 779.516 99.3122 777.875C97.6712 776.234 95.4456 775.313 93.125 775.313H64.9719L66.875 760.263C66.8858 760.175 66.8858 760.087 66.875 760C66.875 747.881 58.3 744.688 53.75 744.688C53.259 744.669 52.7762 744.817 52.3794 745.107C51.9826 745.396 51.6948 745.811 51.5625 746.284L42.8125 776.669C41.3427 779.567 39.0629 781.976 36.25 783.603V781.875C36.25 781.295 36.0195 780.738 35.6093 780.328C35.1991 779.918 34.6427 779.688 34.0625 779.688H12.1875C11.6073 779.688 11.0509 779.918 10.6407 780.328C10.2305 780.738 10 781.295 10 781.875V830C10 830.58 10.2305 831.137 10.6407 831.547C11.0509 831.957 11.6073 832.188 12.1875 832.188H34.0625C34.6427 832.188 35.1991 831.957 35.6093 831.547C36.0195 831.137 36.25 830.58 36.25 830V828.534L48.7844 832.188C48.9798 832.221 49.1795 832.221 49.375 832.188H86.5625C88.2197 832.164 89.8362 831.671 91.2238 830.764C92.6114 829.858 93.7132 828.576 94.4007 827.068C95.0882 825.56 95.3334 823.888 95.1075 822.246C94.8817 820.604 94.1942 819.06 93.125 817.794C94.2086 817.142 95.1379 816.262 95.8489 815.216C96.56 814.17 97.0358 812.983 97.2437 811.735C97.4517 810.488 97.3867 809.21 97.0533 807.99C96.7199 806.77 96.126 805.637 95.3125 804.669C96.3961 804.017 97.3254 803.137 98.0364 802.091C98.7475 801.045 99.2233 799.858 99.4312 798.61C99.6392 797.363 99.5742 796.085 99.2408 794.865C98.9074 793.645 98.3135 792.512 97.5 791.544C98.8161 790.784 99.9117 789.695 100.679 788.383C101.446 787.071 101.858 785.582 101.875 784.063ZM31.875 827.813H14.375V784.063H31.875V827.813ZM86.5625 827.813H49.6812L36.25 823.984V788.175C42.8125 786.666 46.7719 778.856 46.9469 778.484C47.0073 778.357 47.0585 778.225 47.1 778.091L55.3469 749.259C57.9062 749.828 62.4562 751.95 62.5 759.869L60.3125 777.238C60.2751 777.543 60.3026 777.853 60.393 778.147C60.4835 778.441 60.6349 778.712 60.8375 778.944C61.0449 779.18 61.3008 779.369 61.5877 779.497C61.8746 779.625 62.1857 779.69 62.5 779.688H93.125C94.2853 779.688 95.3981 780.148 96.2186 780.969C97.0391 781.789 97.5 782.902 97.5 784.063C97.5 785.223 97.0391 786.336 96.2186 787.156C95.3981 787.977 94.2853 788.438 93.125 788.438H82.1875C81.6073 788.438 81.0509 788.668 80.6407 789.078C80.2305 789.488 80 790.045 80 790.625C80 791.205 80.2305 791.762 80.6407 792.172C81.0509 792.582 81.6073 792.813 82.1875 792.813H90.9375C92.0978 792.813 93.2106 793.273 94.0311 794.094C94.8516 794.914 95.3125 796.027 95.3125 797.188C95.3125 798.348 94.8516 799.461 94.0311 800.281C93.2106 801.102 92.0978 801.563 90.9375 801.563H80C79.4198 801.563 78.8634 801.793 78.4532 802.203C78.043 802.613 77.8125 803.17 77.8125 803.75C77.8125 804.33 78.043 804.887 78.4532 805.297C78.8634 805.707 79.4198 805.938 80 805.938H88.75C89.9103 805.938 91.0231 806.398 91.8436 807.219C92.6641 808.039 93.125 809.152 93.125 810.313C93.125 811.473 92.6641 812.586 91.8436 813.406C91.0231 814.227 89.9103 814.688 88.75 814.688H77.8125C77.2323 814.688 76.6759 814.918 76.2657 815.328C75.8555 815.738 75.625 816.295 75.625 816.875C75.625 817.455 75.8555 818.012 76.2657 818.422C76.6759 818.832 77.2323 819.063 77.8125 819.063H86.5625C87.7228 819.063 88.8356 819.523 89.6561 820.344C90.4766 821.164 90.9375 822.277 90.9375 823.438C90.9375 824.598 90.4766 825.711 89.6561 826.531C88.8356 827.352 87.7228 827.813 86.5625 827.813ZM38.4375 725H40.625V727.188C40.625 727.768 40.8555 728.324 41.2657 728.734C41.6759 729.145 42.2323 729.375 42.8125 729.375C43.3927 729.375 43.9491 729.145 44.3593 728.734C44.7695 728.324 45 727.768 45 727.188V725H47.1875C47.7677 725 48.3241 724.77 48.7343 724.359C49.1445 723.949 49.375 723.393 49.375 722.813C49.375 722.232 49.1445 721.676 48.7343 721.266C48.3241 720.855 47.7677 720.625 47.1875 720.625H45V718.438C45 717.857 44.7695 717.301 44.3593 716.891C43.9491 716.48 43.3927 716.25 42.8125 716.25C42.2323 716.25 41.6759 716.48 41.2657 716.891C40.8555 717.301 40.625 717.857 40.625 718.438V720.625H38.4375C37.8573 720.625 37.3009 720.855 36.8907 721.266C36.4805 721.676 36.25 722.232 36.25 722.813C36.25 723.393 36.4805 723.949 36.8907 724.359C37.3009 724.77 37.8573 725 38.4375 725ZM128.125 801.563H125.938V799.375C125.938 798.795 125.707 798.238 125.297 797.828C124.887 797.418 124.33 797.188 123.75 797.188C123.17 797.188 122.613 797.418 122.203 797.828C121.793 798.238 121.562 798.795 121.562 799.375V801.563H119.375C118.795 801.563 118.238 801.793 117.828 802.203C117.418 802.613 117.188 803.17 117.188 803.75C117.188 804.33 117.418 804.887 117.828 805.297C118.238 805.707 118.795 805.938 119.375 805.938H121.562V808.125C121.562 808.705 121.793 809.262 122.203 809.672C122.613 810.082 123.17 810.313 123.75 810.313C124.33 810.313 124.887 810.082 125.297 809.672C125.707 809.262 125.938 808.705 125.938 808.125V805.938H128.125C128.705 805.938 129.262 805.707 129.672 805.297C130.082 804.887 130.312 804.33 130.312 803.75C130.312 803.17 130.082 802.613 129.672 802.203C129.262 801.793 128.705 801.563 128.125 801.563Z" fill="#B19E7F"/>
<path d="M101.875 692.186C89.1115 692.186 76.8707 697.257 67.8455 706.282C58.8203 715.307 53.75 727.548 53.75 740.311C53.75 740.891 53.9805 741.448 54.3907 741.858C54.8009 742.268 55.3573 742.499 55.9375 742.499C56.5177 742.499 57.0741 742.268 57.4843 741.858C57.8945 741.448 58.125 740.891 58.125 740.311C58.1276 732.016 60.4886 723.892 64.9328 716.887C69.3769 709.882 75.7209 704.286 83.225 700.749C90.7291 697.213 99.0839 695.883 107.315 696.915C115.546 697.946 123.315 701.296 129.714 706.575C136.113 711.854 140.88 718.843 143.458 726.728C146.037 734.613 146.32 743.068 144.275 751.108C142.231 759.147 137.943 766.44 131.911 772.135C125.88 777.83 118.353 781.693 110.209 783.274C109.629 783.329 109.095 783.612 108.723 784.061C108.352 784.511 108.175 785.089 108.23 785.669C108.285 786.249 108.568 786.784 109.017 787.155C109.467 787.526 110.045 787.704 110.625 787.649H111.041C122.899 785.481 133.512 778.941 140.78 769.323C148.048 759.705 151.442 747.709 150.29 735.709C149.137 723.709 143.524 712.578 134.558 704.519C125.593 696.46 113.93 692.059 101.875 692.186Z" fill="#B19E7F"/>
<path d="M121.562 749.062C121.562 744.421 119.719 739.97 116.437 736.688C113.155 733.406 108.704 731.562 104.062 731.562H99.6875C98.5272 731.562 97.4144 731.102 96.5939 730.281C95.7734 729.461 95.3125 728.348 95.3125 727.188C95.3125 726.027 95.7734 724.914 96.5939 724.094C97.4144 723.273 98.5272 722.812 99.6875 722.812H115C116.74 722.812 118.41 722.121 119.64 720.89C120.871 719.66 121.562 717.99 121.562 716.25C121.562 714.51 120.871 712.84 119.64 711.61C118.41 710.379 116.74 709.688 115 709.688H108.438V703.125C108.438 702.545 108.207 701.988 107.797 701.578C107.387 701.168 106.83 700.938 106.25 700.938H97.5C96.9198 700.938 96.3634 701.168 95.9532 701.578C95.543 701.988 95.3125 702.545 95.3125 703.125V710.256C91.2 711.331 87.6192 713.866 85.2389 717.388C82.8585 720.909 81.8413 725.177 82.3771 729.393C82.9129 733.61 84.9651 737.488 88.1505 740.302C91.336 743.117 95.4369 744.675 99.6875 744.688H104.062C105.223 744.688 106.336 745.148 107.156 745.969C107.977 746.789 108.438 747.902 108.438 749.062C108.438 750.223 107.977 751.336 107.156 752.156C106.336 752.977 105.223 753.438 104.062 753.438H88.75C87.0095 753.438 85.3403 754.129 84.1096 755.36C82.8789 756.59 82.1875 758.26 82.1875 760C82.1875 761.74 82.8789 763.41 84.1096 764.64C85.3403 765.871 87.0095 766.562 88.75 766.562H95.3125V773.125C95.3125 773.705 95.543 774.262 95.9532 774.672C96.3634 775.082 96.9198 775.312 97.5 775.312H106.25C106.83 775.312 107.387 775.082 107.797 774.672C108.207 774.262 108.438 773.705 108.438 773.125V765.994C112.192 765.024 115.518 762.836 117.893 759.771C120.269 756.707 121.56 752.94 121.562 749.062ZM105.944 762.034C105.418 762.109 104.937 762.372 104.591 762.774C104.245 763.176 104.057 763.691 104.062 764.222V770.938H99.6875V764.375C99.6875 763.795 99.457 763.238 99.0468 762.828C98.6366 762.418 98.0802 762.188 97.5 762.188H88.75C88.1698 762.188 87.6134 761.957 87.2032 761.547C86.793 761.137 86.5625 760.58 86.5625 760C86.5625 759.42 86.793 758.863 87.2032 758.453C87.6134 758.043 88.1698 757.812 88.75 757.812H104.062C106.383 757.812 108.609 756.891 110.25 755.25C111.891 753.609 112.812 751.383 112.812 749.062C112.812 746.742 111.891 744.516 110.25 742.875C108.609 741.234 106.383 740.312 104.062 740.312H99.6875C96.3898 740.284 93.2238 739.015 90.8193 736.758C88.4148 734.5 86.9481 731.421 86.711 728.132C86.4739 724.842 87.4837 721.584 89.5396 719.006C91.5955 716.427 94.5468 714.717 97.8062 714.216C98.3319 714.141 98.8125 713.878 99.1586 713.476C99.5048 713.074 99.6927 712.559 99.6875 712.028V705.312H104.062V711.875C104.062 712.455 104.293 713.012 104.703 713.422C105.113 713.832 105.67 714.062 106.25 714.062H115C115.58 714.062 116.137 714.293 116.547 714.703C116.957 715.113 117.188 715.67 117.188 716.25C117.188 716.83 116.957 717.387 116.547 717.797C116.137 718.207 115.58 718.438 115 718.438H99.6875C97.3669 718.438 95.1413 719.359 93.5003 721C91.8594 722.641 90.9375 724.867 90.9375 727.188C90.9375 729.508 91.8594 731.734 93.5003 733.375C95.1413 735.016 97.3669 735.938 99.6875 735.938H104.062C107.36 735.966 110.526 737.235 112.931 739.492C115.335 741.75 116.802 744.829 117.039 748.118C117.276 751.408 116.266 754.666 114.21 757.244C112.154 759.823 109.203 761.533 105.944 762.034Z" fill="#B19E7F"/>
</g>
</g>
<defs>
<clipPath id="clip0_1429_4617">
<rect width="1440" height="880" fill="white" transform="matrix(-1 0 0 1 1440 0.1875)"/>
</clipPath>
<clipPath id="clip1_1429_4617">
<rect width="140" height="140" fill="white" transform="translate(10 692.188)"/>
</clipPath>
</defs>
</svg>
