<svg width="33" height="32" viewBox="0 0 33 32" fill="none" xmlns="http://www.w3.org/2000/svg">
<g clip-path="url(#clip0_1973_12457)">
<path d="M26.082 1.25H31.082M31.082 1.25V6.25M31.082 1.25L24.082 8.25M16.582 13.25H14.082M14.082 13.25C12.7013 13.25 11.582 14.3693 11.582 15.75C11.582 17.1307 12.7013 18.25 14.082 18.25C15.4627 18.25 16.582 19.3693 16.582 20.75C16.582 22.1307 15.4627 23.25 14.082 23.25M14.082 13.25V10.75M14.082 23.25H11.582M14.082 23.25V25.75" stroke="white" stroke-width="2" stroke-miterlimit="10" stroke-linecap="round" stroke-linejoin="round"/>
<path d="M25.5381 13.25C26.2093 14.7819 26.582 16.4733 26.582 18.25C26.582 25.1421 20.9741 30.75 14.082 30.75C7.18997 30.75 1.58203 25.1421 1.58203 18.25C1.58203 11.3579 7.18997 5.75 14.082 5.75C15.8587 5.75 17.5501 6.12269 19.082 6.79394" stroke="white" stroke-width="2" stroke-miterlimit="10" stroke-linecap="round" stroke-linejoin="round"/>
</g>
<defs>
<clipPath id="clip0_1973_12457">
<rect width="32" height="32" fill="white" transform="translate(0.332031)"/>
</clipPath>
</defs>
</svg>
