<svg width="88" height="89" viewBox="0 0 88 89" fill="none" xmlns="http://www.w3.org/2000/svg">
<g clip-path="url(#clip0_530_2380)">
<path d="M77.1841 1.48981C73.0653 -0.326773 68.2451 0.446624 63.3529 3.23445C51.1944 10.1411 36.8056 10.1411 24.6471 3.23445C19.7549 0.446624 14.9347 -0.326773 10.8159 1.48981C-1.68438 6.86762 -3.64485 33.271 6.48125 60.3759C9.70074 69.0272 13.6217 77.9662 17.8124 85.862C19.9707 89.9808 25.7802 89.0815 26.7515 84.3872C29.6112 71.3294 36.248 62.1745 44 62.1745C51.5361 62.1745 58.119 70.8977 61.0507 83.4159C62.0939 87.8945 67.6156 88.7938 69.8459 84.8908C74.3244 77.2108 78.3712 68.6854 81.5188 60.304C91.6449 33.1991 89.6844 6.86762 77.1841 1.48981Z" fill="#B19E7F"/>
<path d="M30.667 26.6641L41.0003 34.4141C42.7782 35.7474 45.2225 35.7474 47.0003 34.4141L57.3337 26.6641" stroke="white" stroke-width="2" stroke-linecap="round" stroke-linejoin="round"/>
<path d="M55.6667 23.3359H32.3333C30.4924 23.3359 29 24.8283 29 26.6693V43.3359C29 45.1769 30.4924 46.6693 32.3333 46.6693H55.6667C57.5076 46.6693 59 45.1769 59 43.3359V26.6693C59 24.8283 57.5076 23.3359 55.6667 23.3359Z" stroke="white" stroke-width="2" stroke-linecap="round"/>
<path d="M71.3295 10.4839L70.7217 11.8146C70.1667 13.0306 70.4972 14.5929 71.5635 15.7908L72.7303 17.1005L71.1967 16.2484C69.7943 15.47 68.1968 15.4888 67.1303 16.2963L65.9643 17.1791L66.5716 15.849C67.127 14.6325 66.796 13.0697 65.7302 11.8723L64.5634 10.5626L66.097 11.4146C67.4989 12.1926 69.097 12.1742 70.163 11.3673L71.3295 10.4839Z" fill="#F7F5F2"/>
<path d="M81.3383 9.62418L80.8363 10.6064C80.3783 11.5043 80.496 12.5869 81.1365 13.362L81.8378 14.2092L80.857 13.7108C79.9608 13.2548 78.8781 13.3764 78.101 14.0198L77.2521 14.7234L77.7531 13.7413C78.2121 12.8432 78.0938 11.7602 77.4529 10.9857L76.7521 10.1379L77.7324 10.6369C78.6291 11.0923 79.7123 10.9711 80.4884 10.3279L81.3383 9.62418Z" fill="#F7F5F2"/>
<path d="M76.6345 22.5466L75.6941 24.0181C75.3103 24.769 75.4094 25.6746 75.9447 26.3219L77.7605 28.0152L75.7107 26.6139C74.9618 26.2332 74.056 26.3343 73.4066 26.8726L72.2607 28.0045L73.1156 26.6396C73.4993 25.8887 73.4003 24.9832 72.8644 24.3354L70.4517 22.1643L73.0984 24.0434C73.8479 24.4246 74.7537 24.3234 75.4031 23.7851L76.6345 22.5466Z" fill="#F7F5F2"/>
<path d="M74.7395 3.84682L74.5907 4.19573C74.4541 4.51522 74.5648 4.93851 74.8719 5.27328L75.2087 5.63963L74.7775 5.39116C74.3835 5.1647 73.9461 5.1492 73.6644 5.35166L73.3558 5.57355L73.5056 5.22453C73.6417 4.90557 73.5311 4.48229 73.2234 4.14709L72.8872 3.78117L73.3179 4.02921C73.7123 4.25609 74.1498 4.27159 74.4319 4.0686L74.7395 3.84682Z" fill="#F7F5F2"/>
<path d="M63.8256 23.5351L63.7031 23.8206C63.5916 24.0817 63.6822 24.4288 63.9342 24.7029L64.2094 25.0025L63.8568 24.7995C63.5341 24.6136 63.1754 24.601 62.9449 24.7668L62.6929 24.9486L62.8148 24.6626C62.9269 24.402 62.8362 24.0549 62.5842 23.7808L62.3085 23.4808L62.6617 23.6842C62.9843 23.8701 63.343 23.8827 63.573 23.7164L63.8256 23.5351Z" fill="#F7F5F2"/>
<path d="M60.5184 12.5263L60.3503 12.92C60.1964 13.2796 60.3208 13.7575 60.668 14.1348L61.0472 14.5482L60.5612 14.2681C60.1166 14.0124 59.6232 13.9948 59.3057 14.2235L58.9581 14.4734L59.1267 14.0802C59.2801 13.7202 59.1553 13.2428 58.8085 12.865L58.4294 12.4525L58.9153 12.7317C59.3595 12.9879 59.8533 13.0049 60.1713 12.7767L60.5184 12.5263Z" fill="#F7F5F2"/>
<path d="M68.2128 4.23101L68.1309 4.4225C68.0562 4.59722 68.1168 4.82958 68.2858 5.01366L68.4701 5.21443L68.2338 5.07843C68.0172 4.95382 67.7771 4.94552 67.6228 5.05645L67.4538 5.17821L67.5357 4.98672C67.6104 4.812 67.5493 4.57922 67.3808 4.39556L67.1959 4.19437L67.4327 4.33078C67.6488 4.45497 67.8895 4.4637 68.0437 4.35277L68.2128 4.23101Z" fill="#F7F5F2"/>
<path d="M67.5497 70.7395L67.1446 71.6266C66.7746 72.4371 66.9949 73.4786 67.7058 74.2772L68.4836 75.1503L67.4613 74.5823C66.5264 74.0633 65.4614 74.0759 64.7505 74.6141L63.9732 75.2027L64.378 74.316C64.7483 73.505 64.5276 72.4632 63.8171 71.6649L63.0392 70.7919L64.0616 71.3599C64.9961 71.8785 66.0615 71.8663 66.7721 71.3284L67.5497 70.7395Z" fill="#F7F5F2"/>
<path d="M74.222 70.1689L73.8874 70.8236C73.5821 71.4223 73.6606 72.1439 74.0876 72.6606L74.555 73.2254L73.9012 72.8932C73.3038 72.5892 72.582 72.6702 72.064 73.0991L71.4981 73.5681L71.8321 72.9135C72.138 72.3148 72.0592 71.5928 71.6319 71.0765L71.1647 70.5113L71.8183 70.8439C72.416 71.1476 73.1381 71.0668 73.6555 70.638L74.222 70.1689Z" fill="#F7F5F2"/>
<path d="M71.0871 78.7838L70.4602 79.7648C70.2044 80.2654 70.2704 80.869 70.6273 81.3006L71.8378 82.4294L70.4713 81.4952C69.972 81.2414 69.3682 81.3088 68.9353 81.6677L68.1715 82.4222L68.7413 81.5123C68.9971 81.0118 68.9311 80.4081 68.5739 79.9763L66.9654 78.5289L68.7299 79.7816C69.2295 80.0357 69.8333 79.9683 70.2662 79.6095L71.0871 78.7838Z" fill="#F7F5F2"/>
<path d="M69.823 66.3198L69.7238 66.5524C69.6328 66.7654 69.7065 67.0476 69.9113 67.2707L70.1358 67.515L69.8483 67.3493C69.5857 67.1983 69.2941 67.188 69.1063 67.323L68.9006 67.4709L69.0004 67.2382C69.0912 67.0256 69.0174 66.7434 68.8123 66.52L68.5882 66.276L68.8753 66.4414C69.1383 66.5926 69.4299 66.603 69.6179 66.4677L69.823 66.3198Z" fill="#F7F5F2"/>
<path d="M62.548 79.4401L62.4664 79.6304C62.392 79.8045 62.4525 80.0359 62.6205 80.2186L62.8039 80.4183L62.5688 80.283C62.3538 80.1591 62.1146 80.1507 61.961 80.2612L61.793 80.3824L61.8742 80.1918C61.9489 80.018 61.8885 79.7866 61.7205 79.6039L61.5367 79.4039L61.7721 79.5395C61.9872 79.6634 62.2263 79.6718 62.3797 79.561L62.548 79.4401Z" fill="#F7F5F2"/>
<path d="M60.3432 72.1036L60.2312 72.366C60.1286 72.6057 60.2115 72.9243 60.443 73.1758L60.6958 73.4514L60.3718 73.2646C60.0754 73.0942 59.7465 73.0825 59.5348 73.2349L59.3031 73.4015L59.4155 73.1394C59.5178 72.8994 59.4345 72.5812 59.2033 72.3293L58.9506 72.0543L59.2745 72.2404C59.5707 72.4113 59.8998 72.4226 60.1118 72.2704L60.3432 72.1036Z" fill="#F7F5F2"/>
<path d="M65.4729 66.5759L65.4182 66.7036C65.3685 66.82 65.4089 66.9749 65.5215 67.0976L65.6444 67.2315L65.4869 67.1408C65.3425 67.0578 65.1824 67.0522 65.0796 67.1262L64.9669 67.2073L65.0215 67.0797C65.0713 66.9632 65.0306 66.808 64.9183 66.6856L64.795 66.5515L64.9529 66.6424C65.0969 66.7252 65.2573 66.731 65.3602 66.6571L65.4729 66.5759Z" fill="#F7F5F2"/>
</g>
<defs>
<clipPath id="clip0_530_2380">
<rect width="88" height="88" fill="white" transform="translate(0 0.5)"/>
</clipPath>
</defs>
</svg>
