<svg width="88" height="89" viewBox="0 0 88 89" fill="none" xmlns="http://www.w3.org/2000/svg">
<g clip-path="url(#clip0_530_2088)">
<path d="M77.1841 1.48981C73.0653 -0.326773 68.2451 0.446624 63.3529 3.23445C51.1944 10.1411 36.8056 10.1411 24.6471 3.23445C19.7549 0.446624 14.9347 -0.326773 10.8159 1.48981C-1.68438 6.86762 -3.64485 33.271 6.48125 60.3759C9.70074 69.0272 13.6217 77.9662 17.8124 85.862C19.9707 89.9808 25.7802 89.0815 26.7515 84.3872C29.6112 71.3294 36.248 62.1745 44 62.1745C51.5361 62.1745 58.119 70.8977 61.0507 83.4159C62.0939 87.8945 67.6156 88.7938 69.8459 84.8908C74.3244 77.2108 78.3712 68.6854 81.5188 60.304C91.6449 33.1991 89.6844 6.86762 77.1841 1.48981Z" fill="#85775F"/>
<path d="M55.25 31.25C55.25 28.2663 54.0647 25.4048 51.955 23.295C49.8452 21.1853 46.9837 20 44 20C41.0163 20 38.1548 21.1853 36.045 23.295C33.9353 25.4048 32.75 28.2663 32.75 31.25C32.75 35.865 36.4425 41.88 44 49.085C51.5575 41.88 55.25 35.865 55.25 31.25ZM44 52.5C34.8325 44.1675 30.25 37.0825 30.25 31.25C30.25 27.6033 31.6987 24.1059 34.2773 21.5273C36.8559 18.9487 40.3533 17.5 44 17.5C47.6467 17.5 51.1441 18.9487 53.7227 21.5273C56.3013 24.1059 57.75 27.6033 57.75 31.25C57.75 37.0825 53.1675 44.1675 44 52.5Z" fill="white"/>
<path d="M44 35C44.9946 35 45.9484 34.6049 46.6517 33.9017C47.3549 33.1984 47.75 32.2446 47.75 31.25C47.75 30.2554 47.3549 29.3016 46.6517 28.5983C45.9484 27.8951 44.9946 27.5 44 27.5C43.0054 27.5 42.0516 27.8951 41.3483 28.5983C40.6451 29.3016 40.25 30.2554 40.25 31.25C40.25 32.2446 40.6451 33.1984 41.3483 33.9017C42.0516 34.6049 43.0054 35 44 35ZM44 37.5C42.3424 37.5 40.7527 36.8415 39.5806 35.6694C38.4085 34.4973 37.75 32.9076 37.75 31.25C37.75 29.5924 38.4085 28.0027 39.5806 26.8306C40.7527 25.6585 42.3424 25 44 25C45.6576 25 47.2473 25.6585 48.4194 26.8306C49.5915 28.0027 50.25 29.5924 50.25 31.25C50.25 32.9076 49.5915 34.4973 48.4194 35.6694C47.2473 36.8415 45.6576 37.5 44 37.5Z" fill="white"/>
<path d="M17.3265 10.48L16.7188 11.8107C16.1638 13.0266 16.4943 14.589 17.5606 15.7869L18.7274 17.0966L17.1938 16.2445C15.7914 15.4661 14.1938 15.4849 13.1274 16.2924L11.9613 17.1752L12.5686 15.8451C13.1241 14.6286 12.7931 13.0658 11.7273 11.8683L10.5605 10.5587L12.0941 11.4107C13.496 12.1887 15.094 12.1703 16.16 11.3634L17.3265 10.48Z" fill="#F7F5F2"/>
<path d="M27.3354 9.62418L26.8334 10.6064C26.3754 11.5043 26.4931 12.5869 27.1336 13.362L27.8348 14.2092L26.8541 13.7108C25.9579 13.2548 24.8752 13.3764 24.0981 14.0198L23.2492 14.7234L23.7502 13.7413C24.2091 12.8432 24.0909 11.7602 23.45 10.9857L22.7492 10.1379L23.7295 10.6369C24.6261 11.0923 25.7093 10.9711 26.4855 10.3279L27.3354 9.62418Z" fill="#F7F5F2"/>
<path d="M22.6315 22.5466L21.6912 24.0181C21.3074 24.769 21.4065 25.6746 21.9418 26.3219L23.7575 28.0152L21.7078 26.6139C20.9588 26.2332 20.053 26.3343 19.4037 26.8726L18.2578 28.0045L19.1126 26.6396C19.4964 25.8887 19.3973 24.9832 18.8615 24.3354L16.4488 22.1643L19.0955 24.0434C19.845 24.4246 20.7508 24.3234 21.4001 23.7851L22.6315 22.5466Z" fill="#F7F5F2"/>
<path d="M20.7366 3.84682L20.5878 4.19573C20.4512 4.51522 20.5619 4.93851 20.869 5.27328L21.2058 5.63963L20.7745 5.39116C20.3806 5.1647 19.9432 5.1492 19.6615 5.35166L19.3529 5.57355L19.5027 5.22453C19.6388 4.90557 19.5282 4.48229 19.2205 4.14709L18.8842 3.78117L19.3149 4.02921C19.7094 4.25609 20.1469 4.27159 20.429 4.0686L20.7366 3.84682Z" fill="#F7F5F2"/>
<path d="M9.82263 23.5312L9.70021 23.8167C9.58864 24.0778 9.67927 24.4249 9.93129 24.699L10.2065 24.9986L9.85385 24.7956C9.5312 24.6097 9.17251 24.5971 8.94197 24.7629L8.68996 24.9447L8.81185 24.6587C8.92394 24.3981 8.83331 24.051 8.58129 23.7769L8.30559 23.4769L8.65873 23.6803C8.98139 23.8662 9.34008 23.8788 9.57008 23.7125L9.82263 23.5312Z" fill="#F7F5F2"/>
<path d="M6.51645 12.5263L6.34835 12.92C6.19442 13.2796 6.31886 13.7575 6.66604 14.1348L7.04529 14.5482L6.55924 14.2681C6.11463 14.0124 5.62127 13.9948 5.30375 14.2235L4.95614 14.4734L5.12477 14.0802C5.27817 13.7202 5.1533 13.2428 4.80655 12.865L4.4274 12.4525L4.91335 12.7317C5.35754 12.9879 5.85132 13.0049 6.16937 12.7767L6.51645 12.5263Z" fill="#F7F5F2"/>
<path d="M14.2099 4.23101L14.1279 4.4225C14.0533 4.59722 14.1138 4.82958 14.2828 5.01366L14.4672 5.21443L14.2309 5.07843C14.0143 4.95382 13.7742 4.94552 13.6199 5.05645L13.4508 5.17821L13.5328 4.98672C13.6074 4.812 13.5464 4.57922 13.3779 4.39556L13.193 4.19437L13.4298 4.33078C13.6459 4.45497 13.8865 4.4637 14.0408 4.35277L14.2099 4.23101Z" fill="#F7F5F2"/>
<path d="M21.5487 72.7317L21.1436 73.6187C20.7736 74.4293 20.9939 75.4708 21.7048 76.2694L22.4826 77.1425L21.4603 76.5745C20.5254 76.0555 19.4604 76.0681 18.7495 76.6063L17.9722 77.1948L18.377 76.3081C18.7473 75.4972 18.5266 74.4554 17.8161 73.6571L17.0383 72.784L18.0606 73.352C18.9952 73.8707 20.0605 73.8584 20.7711 73.3205L21.5487 72.7317Z" fill="#F7F5F2"/>
<path d="M28.222 72.1611L27.8874 72.8158C27.5821 73.4144 27.6606 74.1361 28.0876 74.6528L28.555 75.2176L27.9012 74.8853C27.3038 74.5814 26.582 74.6624 26.064 75.0913L25.4981 75.5603L25.8321 74.9056C26.138 74.307 26.0592 73.585 25.6319 73.0687L25.1647 72.5035L25.8183 72.8361C26.416 73.1398 27.1381 73.059 27.6555 72.6302L28.222 72.1611Z" fill="#F7F5F2"/>
<path d="M25.0861 80.776L24.4592 81.757C24.2034 82.2575 24.2694 82.8612 24.6263 83.2927L25.8368 84.4215L24.4703 83.4874C23.971 83.2336 23.3672 83.301 22.9343 83.6598L22.1705 84.4143L22.7403 83.5045C22.9961 83.004 22.9301 82.4003 22.5729 81.9685L20.9645 80.5211L22.7289 81.7738C23.2285 82.0279 23.8323 81.9605 24.2652 81.6016L25.0861 80.776Z" fill="#F7F5F2"/>
<path d="M23.822 68.312L23.7228 68.5446C23.6318 68.7576 23.7056 69.0397 23.9103 69.2629L24.1348 69.5071L23.8473 69.3415C23.5847 69.1905 23.2931 69.1802 23.1053 69.3152L22.8996 69.4631L22.9995 69.2304C23.0902 69.0178 23.0164 68.7356 22.8113 68.5121L22.5872 68.2682L22.8743 68.4336C23.1373 68.5848 23.4289 68.5952 23.617 68.4598L23.822 68.312Z" fill="#F7F5F2"/>
<path d="M16.547 81.4323L16.4654 81.6226C16.3911 81.7967 16.4515 82.0281 16.6195 82.2108L16.8029 82.4105L16.5679 82.2752C16.3528 82.1512 16.1137 82.1428 15.96 82.2534L15.792 82.3746L15.8732 82.1839C15.948 82.0102 15.8875 81.7788 15.7195 81.5961L15.5357 81.3961L15.7712 81.5317C15.9862 81.6556 16.2254 81.664 16.3787 81.5532L16.547 81.4323Z" fill="#F7F5F2"/>
<path d="M14.3432 74.0957L14.2312 74.3581C14.1285 74.5979 14.2115 74.9165 14.443 75.168L14.6958 75.4436L14.3718 75.2568C14.0754 75.0864 13.7465 75.0747 13.5348 75.2271L13.3031 75.3937L13.4155 75.1316C13.5177 74.8916 13.4345 74.5733 13.2033 74.3215L12.9506 74.0465L13.2745 74.2326C13.5707 74.4034 13.8998 74.4148 14.1118 74.2626L14.3432 74.0957Z" fill="#F7F5F2"/>
<path d="M19.4719 68.5681L19.4173 68.6958C19.3675 68.8122 19.4079 68.9671 19.5205 69.0898L19.6435 69.2237L19.4859 69.133C19.3415 69.0499 19.1815 69.0444 19.0786 69.1184L18.9659 69.1995L19.0205 69.0719C19.0703 68.9554 19.0296 68.8002 18.9173 68.6778L18.794 68.5437L18.9519 68.6346C19.0959 68.7174 19.2563 68.7232 19.3592 68.6493L19.4719 68.5681Z" fill="#F7F5F2"/>
</g>
<defs>
<clipPath id="clip0_530_2088">
<rect width="88" height="88" fill="white" transform="translate(0 0.5)"/>
</clipPath>
</defs>
</svg>
