<svg width="88" height="88" viewBox="0 0 88 88" fill="none" xmlns="http://www.w3.org/2000/svg">
<g clip-path="url(#clip0_530_2306)">
<path d="M77.1841 0.989811C73.0653 -0.826773 68.2451 -0.0533761 63.3529 2.73445C51.1944 9.64107 36.8056 9.64107 24.6471 2.73445C19.7549 -0.0533761 14.9347 -0.826773 10.8159 0.989811C-1.68438 6.36762 -3.64485 32.771 6.48125 59.8759C9.70074 68.5272 13.6217 77.4662 17.8124 85.362C19.9707 89.4808 25.7802 88.5815 26.7515 83.8872C29.6112 70.8294 36.248 61.6745 44 61.6745C51.5361 61.6745 58.119 70.3977 61.0507 82.9159C62.0939 87.3945 67.6156 88.2938 69.8459 84.3908C74.3244 76.7108 78.3712 68.1854 81.5188 59.804C91.6449 32.6991 89.6844 6.36762 77.1841 0.989811Z" fill="#B19E7F"/>
<path d="M32.3447 26.0552C32.4163 24.166 33.5018 22.4571 34.8968 21.0621C37.2184 18.7405 40.9224 19.0524 42.3964 21.6936L43.4781 23.6318C44.4542 25.381 44.0624 27.6756 42.5249 29.213M52.4454 46.1557C54.3344 46.0842 56.0434 44.9987 57.4384 43.6037C59.7601 41.282 59.4481 37.578 56.8069 36.104L54.8686 35.0223C53.1196 34.0462 50.8249 34.438 49.2874 35.9755" stroke="white" stroke-width="2"/>
<path d="M32.3439 26.0586C32.2234 29.2388 33.0282 34.6396 38.4458 40.0572C43.8635 45.4749 49.2643 46.2797 52.4445 46.1592M49.2867 35.9789C49.2867 35.9789 47.4217 37.8437 44.0405 34.4626C40.6593 31.0813 42.5242 29.2164 42.5242 29.2164" stroke="white" stroke-width="2"/>
<path d="M71.3295 9.98391L70.7217 11.3146C70.1667 12.5306 70.4972 14.0929 71.5635 15.2908L72.7303 16.6005L71.1967 15.7484C69.7943 14.97 68.1968 14.9888 67.1303 15.7963L65.9643 16.6791L66.5716 15.349C67.127 14.1325 66.796 12.5697 65.7302 11.3723L64.5634 10.0626L66.097 10.9146C67.4989 11.6926 69.097 11.6742 70.163 10.8673L71.3295 9.98391Z" fill="#F7F5F2"/>
<path d="M81.3383 9.12418L80.8363 10.1064C80.3783 11.0043 80.496 12.0869 81.1365 12.862L81.8378 13.7092L80.857 13.2108C79.9608 12.7548 78.8781 12.8764 78.101 13.5198L77.2521 14.2234L77.7531 13.2413C78.2121 12.3432 78.0938 11.2602 77.4529 10.4857L76.7521 9.63791L77.7324 10.1369C78.6291 10.5923 79.7123 10.4711 80.4884 9.82786L81.3383 9.12418Z" fill="#F7F5F2"/>
<path d="M76.6345 22.0466L75.6941 23.5181C75.3103 24.269 75.4094 25.1746 75.9447 25.8219L77.7605 27.5152L75.7107 26.1139C74.9618 25.7332 74.056 25.8343 73.4066 26.3726L72.2607 27.5045L73.1156 26.1396C73.4993 25.3887 73.4003 24.4832 72.8644 23.8354L70.4517 21.6643L73.0984 23.5434C73.8479 23.9246 74.7537 23.8234 75.4031 23.2851L76.6345 22.0466Z" fill="#F7F5F2"/>
<path d="M74.7395 3.34682L74.5907 3.69573C74.4541 4.01522 74.5648 4.43851 74.8719 4.77328L75.2087 5.13963L74.7775 4.89116C74.3835 4.6647 73.9461 4.6492 73.6644 4.85166L73.3558 5.07355L73.5056 4.72453C73.6417 4.40557 73.5311 3.98229 73.2234 3.64709L72.8872 3.28117L73.3179 3.52921C73.7123 3.75609 74.1498 3.77159 74.4319 3.5686L74.7395 3.34682Z" fill="#F7F5F2"/>
<path d="M63.8256 23.0351L63.7031 23.3206C63.5916 23.5817 63.6822 23.9288 63.9342 24.2029L64.2094 24.5025L63.8568 24.2995C63.5341 24.1136 63.1754 24.101 62.9449 24.2668L62.6929 24.4486L62.8148 24.1626C62.9269 23.902 62.8362 23.5549 62.5842 23.2808L62.3085 22.9808L62.6617 23.1842C62.9843 23.3701 63.343 23.3827 63.573 23.2164L63.8256 23.0351Z" fill="#F7F5F2"/>
<path d="M60.5184 12.0263L60.3503 12.42C60.1964 12.7796 60.3208 13.2575 60.668 13.6348L61.0472 14.0482L60.5612 13.7681C60.1166 13.5124 59.6232 13.4948 59.3057 13.7235L58.9581 13.9734L59.1267 13.5802C59.2801 13.2202 59.1553 12.7428 58.8085 12.365L58.4294 11.9525L58.9153 12.2317C59.3595 12.4879 59.8533 12.5049 60.1713 12.2767L60.5184 12.0263Z" fill="#F7F5F2"/>
<path d="M68.2128 3.73101L68.1309 3.9225C68.0562 4.09722 68.1168 4.32958 68.2858 4.51366L68.4701 4.71443L68.2338 4.57843C68.0172 4.45382 67.7771 4.44552 67.6228 4.55645L67.4538 4.67821L67.5357 4.48672C67.6104 4.312 67.5493 4.07922 67.3808 3.89556L67.1959 3.69437L67.4327 3.83078C67.6488 3.95497 67.8895 3.9637 68.0437 3.85277L68.2128 3.73101Z" fill="#F7F5F2"/>
<path d="M67.5497 70.2395L67.1446 71.1266C66.7746 71.9371 66.9949 72.9786 67.7058 73.7772L68.4836 74.6503L67.4613 74.0823C66.5264 73.5633 65.4614 73.5759 64.7505 74.1141L63.9732 74.7027L64.378 73.816C64.7483 73.005 64.5276 71.9632 63.8171 71.1649L63.0392 70.2919L64.0616 70.8599C64.9961 71.3785 66.0615 71.3663 66.7721 70.8284L67.5497 70.2395Z" fill="#F7F5F2"/>
<path d="M74.222 69.6689L73.8874 70.3236C73.5821 70.9223 73.6606 71.6439 74.0876 72.1606L74.555 72.7254L73.9012 72.3932C73.3038 72.0892 72.582 72.1702 72.064 72.5991L71.4981 73.0681L71.8321 72.4135C72.138 71.8148 72.0592 71.0928 71.6319 70.5765L71.1647 70.0113L71.8183 70.3439C72.416 70.6476 73.1381 70.5668 73.6555 70.138L74.222 69.6689Z" fill="#F7F5F2"/>
<path d="M71.0871 78.2838L70.4602 79.2648C70.2044 79.7654 70.2704 80.369 70.6273 80.8006L71.8378 81.9294L70.4713 80.9952C69.972 80.7414 69.3682 80.8088 68.9353 81.1677L68.1715 81.9222L68.7413 81.0123C68.9971 80.5118 68.9311 79.9081 68.5739 79.4763L66.9654 78.0289L68.7299 79.2816C69.2295 79.5357 69.8333 79.4683 70.2662 79.1095L71.0871 78.2838Z" fill="#F7F5F2"/>
<path d="M69.823 65.8198L69.7238 66.0524C69.6328 66.2654 69.7065 66.5476 69.9113 66.7707L70.1358 67.015L69.8483 66.8493C69.5857 66.6983 69.2941 66.688 69.1063 66.823L68.9006 66.9709L69.0004 66.7382C69.0912 66.5256 69.0174 66.2434 68.8123 66.02L68.5882 65.776L68.8753 65.9414C69.1383 66.0926 69.4299 66.103 69.6179 65.9677L69.823 65.8198Z" fill="#F7F5F2"/>
<path d="M62.548 78.9401L62.4664 79.1304C62.392 79.3045 62.4525 79.5359 62.6205 79.7186L62.8039 79.9183L62.5688 79.783C62.3538 79.6591 62.1146 79.6507 61.961 79.7612L61.793 79.8824L61.8742 79.6918C61.9489 79.518 61.8885 79.2866 61.7205 79.1039L61.5367 78.9039L61.7721 79.0395C61.9872 79.1634 62.2263 79.1718 62.3797 79.061L62.548 78.9401Z" fill="#F7F5F2"/>
<path d="M60.3432 71.6036L60.2312 71.866C60.1286 72.1057 60.2115 72.4243 60.443 72.6758L60.6958 72.9514L60.3718 72.7646C60.0754 72.5942 59.7465 72.5825 59.5348 72.7349L59.3031 72.9015L59.4155 72.6394C59.5178 72.3994 59.4345 72.0812 59.2033 71.8293L58.9506 71.5543L59.2745 71.7404C59.5707 71.9113 59.8998 71.9226 60.1118 71.7704L60.3432 71.6036Z" fill="#F7F5F2"/>
<path d="M65.4729 66.0759L65.4182 66.2036C65.3685 66.32 65.4089 66.4749 65.5215 66.5976L65.6444 66.7315L65.4869 66.6408C65.3425 66.5578 65.1824 66.5522 65.0796 66.6262L64.9669 66.7073L65.0215 66.5797C65.0713 66.4632 65.0306 66.308 64.9183 66.1856L64.795 66.0515L64.9529 66.1424C65.0969 66.2252 65.2573 66.231 65.3602 66.1571L65.4729 66.0759Z" fill="#F7F5F2"/>
</g>
<defs>
<clipPath id="clip0_530_2306">
<rect width="88" height="88" fill="white"/>
</clipPath>
</defs>
</svg>
